<?xml version="1.0" encoding="utf-8"?><!-- Generator: Gravit.io -->
<svg xmlns="http://www.w3.org/2000/svg" xmlns:xlink="http://www.w3.org/1999/xlink" style="isolation:isolate" viewBox="0 0 400 460" width="100%" height="100%">
	<defs>
		<clipPath id="_clipPath_ot3qrmI373GSE3pmuUBK82s4zONLZp9w">
			<rect width="400" height="460"/>
		</clipPath>
	</defs>
	<g clip-path="url(#_clipPath_ot3qrmI373GSE3pmuUBK82s4zONLZp9w)">
		<rect x="0" y="0" width="400" height="460" transform="matrix(1,0,0,1,0,0)" fill="rgb(191,227,231)" vector-effect="non-scaling-stroke" stroke-width="0.062" stroke="rgb(255,255,255)" stroke-linejoin="miter" stroke-linecap="butt" stroke-miterlimit="2"/>
<style>
	path{transition-duration: 0.5s;}
	path.legal{fill:green;}
	path.legal.non_indexed,
	path.legal:hover{fill:#77c777;}
	path.semi_legal{fill:orange;}
	path.semi_legal.non_indexed,
	path.semi_legal:hover{fill:#ffcc70;}
	path.illegal{fill:#d00808;}
	path.illegal.non_indexed,
	path.illegal:hover{fill:#d07474;}
	path.non_indexed{fill:white;}
</style>
<!--
urls:
/#search-by-country&country=1 Österreich
/#search-by-country&country=2 Deutschland
/#search-by-country&country=3 Schweiz
/	#search-by-country&country=4 Spanien
/#search-by-country&country=5 Frankreich
/#search-by-country&country=7 Niederlande
/	#search-by-country&country=8 Belgien
/#search-by-country&country=9 United Kingdom
/#search-by-country&country=10 Portugal
/#search-by-country&country=12 Norwegen
/#search-by-country&country=14 Italien
-->
<!--Ostblock, non indexed-->
<path id="non_indexed" class="non_indexed" d=" M 325.457 215.812 C 325.339 215.657 325.258 215.47 325.209 215.255 C 325.209 215.255 322.001 205.823 322.001 205.823 L 322.001 205.823 L 322.001 205.823 L 322.001 205.823 L 322.001 205.823 L 322.001 205.823 C 319.482 199.947 320.449 184.479 328.603 183.145 C 330.65 182.81 334.988 193.581 338.62 191.444 C 343.828 188.381 341.867 183.847 339.687 179.486 L 339.687 179.486 L 339.687 179.486 L 339.687 179.486 C 339.666 179.3 339.629 179.112 339.645 178.924 C 340.57 168.147 337.969 178.692 334.481 174.323 C 333.418 172.991 330.526 165.605 330.54 165.421 C 330.652 163.859 335.931 159.86 337.572 159.493 C 339.632 159.032 345.41 155.162 345.814 155.36 C 348.745 156.798 358.339 153.821 358.815 154.11 C 358.815 154.111 358.816 154.111 358.817 154.112 L 358.817 154.112 C 358.817 154.112 358.817 154.112 358.817 154.112 C 356.811 151.681 361.422 146.981 363.873 145.927 C 365.127 145.388 371.341 146.115 371.289 145.157 C 371.108 141.833 362.446 143.973 361.797 143.058 C 360.251 140.88 353.915 135.83 353.915 141.52 L 353.915 141.52 L 327.674 38.67 L 327.674 38.67 L 330.173 33.768 L 330.173 33.768 L 330.653 31.846 C 330.653 31.846 335.123 25.922 335.123 25.922 C 334.975 25.667 334.317 25.312 334.594 25.213 C 335.47 24.901 336.453 25.158 337.382 25.117 C 340.94 24.959 334.981 22.362 341.566 22.801 C 341.796 22.817 342.027 22.75 342.246 22.68 C 342.516 22.594 342.754 22.427 343.021 22.337 C 343.253 22.259 343.493 22.181 343.738 22.18 C 346.168 22.161 337.782 24.254 340.265 26.078 C 340.85 26.508 347.652 25.148 347.39 26.316 C 347.241 26.984 346.201 25.358 346.802 27.809 C 346.818 27.876 346.822 27.954 346.868 28.007 C 346.962 28.116 347.085 28.199 347.206 28.277 C 347.337 28.362 347.491 28.406 347.62 28.493 C 347.732 28.569 347.844 28.654 347.922 28.764 C 347.961 28.818 347.957 28.895 347.955 28.962 C 347.952 29.071 347.967 29.195 347.907 29.286 C 347.742 29.537 347.501 29.728 347.303 29.953 C 347.095 30.19 346.828 30.39 346.691 30.674 C 346.603 30.855 346.609 31.082 346.662 31.276 C 346.92 32.216 347.348 32.221 347.066 31.065 C 345.871 26.16 354.746 24.281 357.796 24.375 C 361.816 24.5 367.153 25.805 370.447 28.217 C 373.562 30.498 379.978 28.689 380.144 28.758 C 384.757 30.667 392.579 33.595 393.559 38.589 C 395.001 45.941 392.053 53.768 384.509 56.278 C 381.571 57.256 377.94 56.351 374.761 57.089 C 374.761 57.089 364.8 57.955 364.8 57.955 C 364.022 57.27 355.078 55.679 355.236 55.179 C 355.236 55.179 350.094 54.939 350.094 54.939 C 350.523 55.964 356.347 58.137 358.898 58.693 C 364.656 59.949 358.354 60.866 363.022 61.956 C 364.229 62.237 365.428 62.553 366.613 62.915 C 366.804 62.974 368.448 63.385 368.91 63.95 C 371.338 66.926 369.389 70.817 370.736 71.928 C 375.283 75.682 374.028 79.341 375.926 80.771 C 375.926 80.771 386.557 82.679 386.557 82.679 C 383.718 82.221 383.496 82.955 386.307 83.943 C 388.485 84.709 391.345 84.132 393.613 83.655 C 395.946 83.164 394.818 75.417 391.498 75.773 C 390.665 75.862 390.647 79.115 387.761 77.191 C 387.761 77.191 382.27 72.793 382.27 72.793 C 382.327 62.069 396.278 75.585 399.934 70.001 C 401.908 66.984 397.393 62.829 395.727 60.682 C 394.422 58.999 397.116 51.325 397.698 51.587 C 410.916 57.528 402.254 73.504 402.402 89.165 C 402.674 117.984 402.919 146.805 403.149 175.625 L 403.149 175.625 L 403.149 175.625 C 403.185 180.2 401.871 182.692 399.789 183.695 C 399.796 183.857 400.213 194.13 400.287 195.949 L 400.287 195.949 C 400.489 196.003 400.501 196.003 400.5 196 C 400.5 195.904 402.077 205.952 401.5 206.625 C 401.392 206.787 399.762 206.887 396.793 206.93 C 397.073 206.929 404.001 206.885 404.001 206.885 C 404.529 211.086 405.188 221.516 403.121 226.595 L 403.121 226.595 C 403.905 226.598 404.304 226.622 404.333 226.667 C 404.701 227.31 402.589 384.949 400.667 385.333 C 400.663 385.337 400.454 385.311 400.05 385.276 C 400.051 385.277 400.051 385.279 400.051 385.281 L 400.051 385.281 L 400.051 385.281 C 399.878 386.487 399.005 387.938 397.936 388.549 L 397.936 388.549 L 397.84 389.606 C 393.897 387.519 380.699 387.344 375.828 393.355 C 374.443 395.064 384.919 399.214 383.775 400.06 C 383.402 400.336 377.729 394.138 376.789 398.738 C 376.115 402.04 384.949 401.865 376.405 399.41 C 376.22 399.357 376.02 399.41 375.828 399.41 C 370.454 399.41 376.627 401.604 377.69 403.094 C 377.722 403.139 377.699 403.224 377.654 403.255 C 376.541 404.037 370.22 399.999 368.715 398.93 C 367.561 398.11 368.606 395.633 368.358 395.816 C 359.539 402.341 375.118 407.249 375.736 412.737 C 375.818 413.467 371.28 411.191 371.262 411.498 C 371.198 412.594 371.097 412.709 370.654 413.901 C 370.608 414.025 370.579 414.175 370.632 414.297 C 370.632 414.297 372.248 416.919 372.248 416.919 C 371.916 417.124 371.576 417.319 371.216 417.469 C 370.672 417.696 370.099 417.847 369.544 418.046 C 369.105 418.203 368.664 418.356 368.235 418.538 C 368.198 418.554 368.127 418.615 368.163 418.634 C 375.715 422.726 382.606 418.646 385.933 429.238 C 386.306 430.427 379.661 427.533 377.678 428.223 C 376.012 428.802 373.065 429.724 376.225 430.217 C 377.599 430.431 376.282 430.38 376.213 430.938 C 376.014 432.526 380.987 434.521 380.901 434.633 C 378.524 437.735 374.066 432.23 372.56 434.11 C 371.541 435.382 380.319 445.727 379.673 447.278 C 378.826 449.312 373.509 440.238 372.368 444.875 C 372.181 445.633 373.479 449.552 372.044 449.034 C 371.845 448.962 371.628 448.896 371.476 448.748 C 371.29 448.567 371.128 448.336 371.069 448.083 C 371.02 447.875 371.077 446.012 371.046 445.795 C 371.023 445.633 370.941 445.475 370.83 445.356 C 370.774 445.296 370.67 445.324 370.59 445.308 C 370.509 445.292 370.407 445.318 370.349 445.26 C 364.278 439.189 366.142 447.745 364.117 446.125 C 361.261 443.84 363.865 439.367 362.182 437.312 C 357.462 431.548 356.65 436.18 358.046 428.247 C 358.049 428.229 358.059 428.184 358.07 428.199 C 358.428 428.665 364.769 426.965 367.117 427.333 C 373.492 428.335 373.804 430.163 376.364 426.484 C 376.476 426.322 376.541 426.129 376.597 425.94 C 376.609 425.9 376.603 425.816 376.561 425.82 C 376.561 425.82 367.754 423.729 367.754 423.729 C 366.783 425.93 367.371 425.154 363.756 424.822 C 356.353 424.144 358.731 429.343 354.573 424.354 C 352.478 421.839 351.481 419.994 349.428 418.229 C 348.061 417.053 342.469 413.666 342.186 412.194 C 342.186 412.194 342.224 412.144 342.665 411.567 C 341.041 410.691 341.529 408.258 337.954 406.624 C 332.776 404.258 334.725 397.215 335.037 394.232 C 335.485 389.935 333.519 386.911 332.984 383.415 L 332.984 383.415 L 332.984 383.415 C 331.814 384.31 331.509 384.544 331.509 384.544 L 331.509 384.544 L 331.509 384.544 L 331.509 384.544 C 330.353 383.152 323.222 378.6 325.137 376.928 C 325.587 376.534 326.028 376.162 326.468 375.792 C 326.139 375.6 325.811 375.409 325.482 375.224 L 323.731 379.321 C 322.866 379.129 322.001 378.648 321.328 378.168 C 316.233 374.131 316.906 376.918 313.638 375.188 C 313.446 375.092 313.542 374.707 313.35 374.611 C 312.677 374.227 312.004 374.034 311.427 373.938 C 310.754 373.842 300.577 368.859 300 368.667 Q 299.934 368.634 303.196 368.702 C 300.685 368.514 299.152 368.575 299.124 368.556 C 298.643 367.979 299.22 366.922 299.028 366.249 C 298.932 365.96 296.432 365.191 295.856 364.807 C 295.663 364.711 291.338 361.635 291.242 360.481 C 290.857 356.829 293.068 358.559 292.299 358.175 C 291.626 357.694 289.992 356.252 289.416 355.579 C 287.493 353.465 289.512 350.966 287.782 348.947 C 287.493 348.659 286.916 348.947 286.532 348.659 C 284.802 347.217 285.763 346.159 282.976 346.352 C 282.11 346.352 282.014 350.581 281.822 351.062 C 280.765 352.792 280.765 351.638 280.669 351.927 C 280.284 352.6 279.996 353.369 279.515 353.945 C 279.035 354.522 278.746 352.023 278.362 351.446 C 277.881 350.773 276.343 350.1 276.728 349.524 C 276.728 349.428 276.439 348.082 276.343 347.313 C 276.343 347.217 275.574 345.871 275.478 345.102 C 275.478 344.814 276.055 345.102 276.343 345.102 C 277.208 345.487 258.866 285.577 259.25 285 Q 259.3 284.9 284.667 275.667 L 322.667 287 L 356 272.333 L 345.333 248.333 Q 340.658 228.325 340.667 228.333 C 340.697 228.395 341.442 228.418 342.832 228.406 C 341.307 226.781 339.787 223.219 337.957 225.047 C 337.926 225.005 337.896 224.963 337.87 224.921 C 336.072 222.236 338.414 217.84 335.073 216.685 C 333.873 216.27 331.255 216.79 329.01 216.848 C 329.942 217.309 330.852 217.66 331.479 217.512 C 339.248 215.69 334.603 220.271 325.457 215.812 Z  M 346.899 404.741 C 346.978 405.067 347.055 405.396 347.129 405.728 L 347.129 405.728 C 346.979 405.925 346.735 406.244 346.282 406.837 C 346.422 405.924 346.541 405.258 346.677 405.068 C 346.752 404.962 346.826 404.852 346.899 404.741 L 346.899 404.741 L 346.899 404.741 L 346.899 404.741 L 346.899 404.741 L 346.899 404.741 L 346.899 404.741 Z  M 354.778 419.019 C 354.778 419.019 351.125 417.962 351.125 417.962 C 349.702 419.503 353.592 420.995 354.778 419.019 L 354.778 419.019 L 354.778 419.019 L 354.778 419.019 L 354.778 419.019 L 354.778 419.019 L 354.778 419.019 L 354.778 419.019 L 354.778 419.019 L 354.778 419.019 L 354.778 419.019 Z  M 353.144 430.457 C 351.06 432.28 345.464 427.122 353.144 430.457 L 353.144 430.457 L 353.144 430.457 L 353.144 430.457 L 353.144 430.457 L 353.144 430.457 L 353.144 430.457 L 353.144 430.457 L 353.144 430.457 L 353.144 430.457 L 353.144 430.457 Z  M 386.017 422.287 C 386.017 422.287 371.767 417.938 371.767 417.938 C 376.464 404.951 398.213 434.483 386.017 422.287 L 386.017 422.287 L 386.017 422.287 L 386.017 422.287 L 386.017 422.287 L 386.017 422.287 L 386.017 422.287 L 386.017 422.287 L 386.017 422.287 L 386.017 422.287 L 386.017 422.287 Z  M 323.058 210.149 C 322.143 211.063 323.089 210.073 323.058 210.149 L 323.058 210.149 L 323.058 210.149 L 323.058 210.149 L 323.058 210.149 L 323.058 210.149 L 323.058 210.149 Z  M 329.402 172.181 C 332.511 174.334 329.399 175.864 325.545 181.252 C 324.656 182.495 324.118 173.929 324.136 173.866 C 324.157 173.794 324.234 173.735 324.307 173.719 C 325.876 173.377 324.035 175.412 325.353 173.53 C 325.563 173.23 325.807 172.909 326.146 172.768 C 326.674 172.548 327.277 172.595 327.84 172.493 C 328.362 172.399 328.894 172.336 329.402 172.181 L 329.402 172.181 L 329.402 172.181 L 329.402 172.181 L 329.402 172.181 L 329.402 172.181 Z  M 325.941 166.606 C 329.137 166.606 330.237 171.304 326.327 171.786 C 321.312 172.405 325.259 168.654 325.941 166.606 L 325.941 166.606 L 325.941 166.606 L 325.941 166.606 L 325.941 166.606 L 325.941 166.606 Z  M 367.564 121.623 C 371.275 122.087 378.267 124.886 367.564 121.623 L 367.564 121.623 L 367.564 121.623 L 367.564 121.623 L 367.564 121.623 Z  M 313.06 215.821 L 313.06 215.821 L 313.06 215.821 Z " fill-rule="evenodd" fill="rgb(255,255,255)" vector-effect="non-scaling-stroke" stroke-width="0.881" stroke="rgb(255,255,255)" stroke-linejoin="round" stroke-linecap="butt" stroke-miterlimit="4"/>
<path id="isl" class="legal non_indexed" d=" M 76.22 73.234 C 76.064 73.182 69.339 70.049 69.398 69.855 C 69.647 69.039 76.594 66.276 78.887 67.058 C 78.887 67.058 75.337 66.037 75.337 66.037 C 76.083 65.625 77.019 64.228 77.71 64.343 C 77.71 64.343 80.401 63.706 80.401 63.706 C 74.675 62.321 76.997 63.317 75.367 59.106 C 75.346 59.051 75.312 58.991 75.259 58.966 C 75.227 58.951 75.182 58.979 75.163 59.008 C 75.023 59.217 75.857 60.242 74.682 59.092 C 74.281 58.699 73.952 58.238 73.565 57.831 C 73.406 57.664 73.228 57.517 73.048 57.374 C 72.975 57.316 72.9 57.245 72.808 57.23 C 72.225 57.133 67.918 56.318 68.462 55.632 C 68.462 55.632 78.135 57.119 78.135 57.119 C 78.48 57.252 83.041 59.539 82.998 58.34 C 82.901 55.627 79.688 58.459 78.431 55.452 C 78.431 55.452 81.627 54.286 81.627 54.286 C 86.233 53.553 82.773 55.33 81.422 53.044 C 81.39 52.99 81.399 52.918 81.41 52.856 C 81.426 52.778 81.436 52.681 81.501 52.634 C 81.664 52.517 81.863 52.456 82.055 52.395 C 82.284 52.322 82.531 52.314 82.758 52.233 C 82.942 52.167 83.132 52.091 83.276 51.958 C 83.34 51.899 83.332 51.79 83.333 51.703 C 83.336 51.445 83.342 51.183 83.29 50.93 C 83.227 50.623 83.168 50.298 82.993 50.038 C 82.89 49.885 82.693 49.785 82.509 49.768 C 80.796 49.611 79.538 53.125 80.029 50.057 C 80.049 49.933 80.012 49.802 79.969 49.684 C 79.956 49.651 79.901 49.615 79.872 49.636 C 79.404 49.985 79.344 50.348 79.464 49.648 C 79.469 49.618 79.421 49.576 79.392 49.588 C 78.842 49.816 78.501 50.767 78.238 49.684 C 78.238 49.684 71.762 46.12 71.762 46.12 C 71.865 45.874 71.967 45.601 72.175 45.433 C 73.372 44.467 74.751 49.151 75.382 48.065 C 75.866 47.232 75.112 46.27 74.913 45.502 C 74.46 43.745 76.352 45.167 76.615 46.419 C 76.715 46.895 76.742 47.383 76.839 47.859 C 76.888 48.1 76.931 48.351 77.051 48.566 C 77.125 48.697 77.246 48.86 77.396 48.855 C 77.608 48.847 77.785 48.673 77.946 48.535 C 78.103 48.4 78.216 48.22 78.335 48.05 C 78.731 47.484 76.159 46.354 78.772 47.053 C 78.94 47.098 79.116 47.14 79.29 47.125 C 79.369 47.119 79.435 47.053 79.488 46.993 C 79.523 46.953 79.579 46.877 79.539 46.843 C 79.539 46.843 77.013 43.428 77.013 43.428 C 77.013 43.428 79.68 46.416 79.68 46.416 C 79.409 43.354 76.056 42.382 79.722 44.152 C 79.797 44.188 79.941 44.188 79.969 44.109 C 80.03 43.931 79.977 43.728 79.933 43.545 C 79.82 43.083 79.602 42.651 79.499 42.187 C 79.469 42.052 79.477 41.897 79.539 41.772 C 79.594 41.662 79.705 41.564 79.825 41.536 C 82.92 40.804 82.18 49.183 83.441 48.207 C 83.441 48.207 83.51 42.256 83.51 42.256 C 85.718 41.996 86.12 44.788 86.12 42.668 C 86.12 42.622 86.07 42.572 86.024 42.572 C 84.237 42.561 84.617 44.003 83.429 41.418 C 83.356 41.259 83.277 41.101 83.225 40.934 C 83.163 40.729 83.093 40.521 83.088 40.307 C 83.086 40.202 83.123 40.081 83.205 40.016 C 83.283 39.955 83.406 39.948 83.5 39.98 C 83.5 39.98 85.063 40.072 85.063 40.072 C 85.063 40.072 89.247 48.988 89.247 48.988 C 85.939 50.166 87.381 52.484 85.435 57.687 C 85.333 57.961 84.987 58.551 85.174 58.939 C 85.434 59.477 88.663 53.827 90.571 53.881 C 90.571 53.881 90.145 56.664 90.145 56.664 C 90.609 56.475 91.706 55.799 92.176 55.259 C 92.333 55.08 92.505 54.899 92.59 54.677 C 92.793 54.147 92.915 53.588 93.028 53.032 C 93.176 52.297 92.962 49.642 94.487 50.25 C 96.287 50.967 94.854 57.132 96.855 56.568 C 98.738 56.038 97.421 52.409 101.437 52.181 C 101.528 52.175 101.61 52.24 101.692 52.28 C 101.771 52.318 101.864 52.344 101.92 52.412 C 102.032 52.546 102.133 52.699 102.182 52.867 C 102.267 53.163 102.28 53.476 102.317 53.782 C 102.341 53.985 102.37 54.19 102.365 54.394 C 102.362 54.509 102.345 54.629 102.293 54.731 C 101.998 55.305 101.825 55.12 101.884 55.644 C 101.9 55.78 101.926 55.917 101.98 56.043 C 102.036 56.178 102.079 56.348 102.208 56.415 C 102.208 56.415 102.729 60.927 102.729 60.927 C 108.286 49.789 101.828 59.11 109.276 55.623 C 109.397 55.566 109.537 55.565 109.67 55.548 C 109.732 55.54 109.799 55.529 109.859 55.548 C 109.967 55.582 110.081 55.624 110.16 55.705 C 110.297 55.845 110.407 56.014 110.49 56.192 C 110.804 56.868 110.851 57.765 111.496 58.239 C 111.528 58.263 111.589 58.305 111.61 58.272 C 111.652 58.208 111.635 58.118 111.624 58.042 C 111.592 57.825 111.491 57.618 111.484 57.398 C 111.481 57.288 111.533 57.178 111.592 57.086 C 111.643 57.008 111.71 56.908 111.803 56.903 C 113.116 56.822 113.259 51.979 116.371 53.974 C 116.52 54.069 116.706 54.208 116.705 54.384 C 116.635 63.302 120.637 54.651 122.646 58.624 C 122.666 58.662 122.708 58.717 122.679 58.75 C 122.679 58.75 118.922 61.712 118.922 61.712 C 119.253 61.776 119.6 61.719 119.931 61.784 C 120.08 61.813 120.212 61.905 120.339 61.988 C 120.433 62.049 120.535 62.113 120.587 62.212 C 120.669 62.366 120.757 62.545 120.728 62.717 C 120.679 63.013 120.567 63.318 120.366 63.541 C 119.102 64.941 117.384 65.153 118.705 65.256 C 123.708 65.645 114.857 68.429 122.154 68.776 C 122.21 68.779 122.235 68.858 122.262 68.909 C 122.392 69.152 122.557 69.386 122.622 69.654 C 122.732 70.104 122.816 70.574 122.78 71.037 C 122.757 71.332 122.607 71.61 122.451 71.861 C 122.364 72.001 122.208 72.088 122.069 72.177 C 121.923 72.27 121.769 72.361 121.601 72.405 C 121.126 72.53 120.231 72.478 119.823 72.922 C 119.701 73.054 119.568 73.188 119.498 73.354 C 119.475 73.41 119.524 73.482 119.57 73.522 C 119.641 73.584 119.736 73.611 119.826 73.64 C 120.27 73.781 120.734 73.861 121.168 74.032 C 121.5 74.161 121.827 74.319 122.11 74.535 C 122.257 74.647 122.392 74.808 122.427 74.99 C 122.907 77.526 117.564 76.894 117.749 74.924 C 117.749 74.924 118.135 76.995 118.135 76.995 C 118.377 77.593 120.1 77.688 118.982 78.34 C 118.924 78.374 118.86 78.394 118.801 78.425 C 118.572 78.546 118.346 78.676 118.117 78.797 C 117.755 78.988 117.413 79.228 117.026 79.36 C 116.821 79.43 116.59 79.431 116.377 79.392 C 116.268 79.372 116.177 79.282 116.11 79.194 C 115.983 79.024 115.005 76.531 115.128 77.496 C 115.21 78.145 116.261 78.713 115.918 79.386 C 115.884 79.452 115.849 79.535 115.78 79.563 C 115.624 79.625 115.451 79.636 115.284 79.64 C 115.079 79.644 114.876 79.588 114.671 79.585 C 114.481 79.583 114.288 79.582 114.103 79.626 C 114.022 79.645 113.962 79.715 113.899 79.77 C 113.899 79.77 110.25 82.897 110.25 82.897 C 108.603 80.077 106.536 80.856 101.836 83.471 C 100.575 84.173 89.897 85.372 87.658 85.093 C 76.82 83.743 82.661 74.844 76.22 73.234 L 76.22 73.234 L 76.22 73.234 Z " fill="rgb(10,170,39)" vector-effect="non-scaling-stroke" stroke-width="0.881" stroke="rgb(255,255,255)" stroke-linejoin="round" stroke-linecap="butt" stroke-miterlimit="4"/>
<a target="_top" xlink:href="/?page_id=103/#search-by-country&amp;country=10" class="country_link" alt="browse clinics by country">
<path id="prt" class="semi_legal" d=" M 68.722 428.016 C 68.814 426.098 69.427 419.314 72.183 418.692 C 81.374 416.615 67.771 413.872 74.201 409.464 C 75.27 408.731 78.226 407.898 77.758 406.004 C 77.193 403.715 75.068 399.733 74.009 397.161 C 74.009 397.161 81.059 395.497 81.059 395.497 C 81.154 395.187 81.25 394.858 81.208 394.537 C 81.125 393.901 80.384 393.367 80.257 392.643 C 80.238 392.537 80.21 392.428 80.228 392.322 C 80.256 392.161 80.285 391.984 80.391 391.86 C 80.545 391.68 80.753 391.542 80.972 391.452 C 81.316 391.312 81.699 391.293 82.053 391.182 C 78.92 390.594 83.828 383.963 83.333 381.974 C 83.276 381.745 91.583 378.802 91.683 376.631 C 91.835 373.357 85.785 372.022 84.354 370.007 C 84.354 370.007 79.512 370.007 79.512 370.007 C 79.512 370.007 73.62 368.578 73.62 368.578 C 73.596 367.68 76.921 366.46 74.754 366.114 C 74.69 366.104 74.621 366.072 74.586 366.018 C 74.556 365.97 74.563 365.901 74.586 365.849 C 74.65 365.706 74.782 365.599 74.838 365.453 C 74.853 365.414 74.818 365.357 74.778 365.345 C 74.561 365.279 74.335 365.239 74.108 365.231 C 73.617 365.213 73.123 365.213 72.635 365.267 C 72.13 365.322 71.63 365.425 71.139 365.555 C 69.919 365.878 67.796 367.01 67.132 368.16 C 67.022 368.351 67.818 377.773 65.343 381.918 C 64.837 382.766 66.79 379.839 67.249 380.681 C 67.575 381.277 64.316 384.495 63.772 385.602 C 63.62 385.912 63.429 386.201 63.244 386.491 C 63.168 386.61 63.081 386.72 62.991 386.828 C 62.828 387.024 62.612 387.182 62.487 387.405 C 62.431 387.502 62.459 387.63 62.475 387.741 C 62.491 387.854 62.502 387.985 62.583 388.065 C 62.79 388.273 63.083 388.377 63.304 388.57 C 63.403 388.657 63.462 388.782 63.532 388.894 C 63.537 388.902 63.527 388.924 63.52 388.918 C 63.123 388.605 62.839 388.192 62.439 388.786 C 62.249 389.067 62.131 389.389 61.97 389.687 C 61.886 389.842 61.796 389.993 61.706 390.144 C 61.464 390.546 61.221 390.947 60.973 391.345 C 57.824 396.403 57.085 395.618 55.013 399.323 C 50.406 407.565 54.822 405.948 58.402 408.659 C 61.741 411.189 57.641 407.703 58.149 409.753 C 58.805 412.399 56.124 418.325 55.962 419.245 C 55.962 419.245 53.109 426.682 53.109 426.682 C 58.32 427.615 63.481 428.016 68.722 428.016 L 68.722 428.016 L 68.722 428.016 Z " fill="rgb(251,217,46)" vector-effect="non-scaling-stroke" stroke-width="0.881" stroke="rgb(255,255,255)" stroke-linejoin="round" stroke-linecap="butt" stroke-miterlimit="4"/></a>
<a target="_top" xlink:href="/?page_id=103/#search-by-country&amp;country=4" class="country_link" alt="browse clinics by country">
<path id="esp" class="semi_legal" d=" M 167.246 377.937 C 172.73 380.287 175.668 378.937 180.895 380.244 L 180.895 380.244 L 181.28 380.244 C 183.242 382.206 178.5 388.469 175.693 389.735 C 169.889 392.355 159.684 393.184 155.44 397.186 C 155.439 397.188 153.574 401.22 151.098 403.793 C 148.631 406.356 145.87 408.574 143.826 411.522 C 142.167 413.913 142.499 418.825 144.898 420.626 C 144.898 420.626 147.381 422.994 147.381 422.994 C 147.381 422.994 135.6 432.221 135.6 432.221 C 135.001 432.513 134.938 433.411 134.95 433.975 C 134.963 434.594 136.91 435.323 136.163 435.933 C 134.24 437.507 129.602 435.143 126.587 437.147 C 122.949 439.565 122.949 446.213 118.492 442.997 C 116.096 441.268 109.389 443.882 105.909 441.761 C 103.874 440.52 99.791 439.968 97.463 440.415 C 97.463 440.415 83.633 446.735 83.633 446.735 C 81.518 443.722 78.362 443.294 78.046 438.685 C 77.936 437.07 80.578 436.09 76.412 431.86 C 76.412 431.86 68.722 428.016 68.722 428.016 C 68.024 426.165 69.861 419.216 72.183 418.692 C 81.374 416.615 67.771 413.872 74.201 409.464 C 79.074 406.124 76.174 402.417 74.009 397.161 C 74.009 397.161 81.059 395.497 81.059 395.497 C 81.154 395.187 81.25 394.858 81.208 394.537 C 81.125 393.901 80.384 393.367 80.257 392.643 C 80.238 392.537 80.21 392.428 80.228 392.322 C 80.256 392.161 80.285 391.984 80.391 391.86 C 80.545 391.68 80.753 391.542 80.972 391.452 C 81.316 391.312 81.699 391.293 82.053 391.182 C 83.92 390.594 83.828 383.963 83.333 381.974 C 83.276 381.745 91.583 378.802 91.683 376.631 C 91.835 373.357 85.785 372.022 84.354 370.007 C 84.017 369.531 74.984 370.349 73.918 369.085 C 72.814 367.775 78.558 362.616 69.774 366.024 C 69.576 366.1 69.415 366.307 69.203 366.306 C 69.107 366.306 69.257 366.114 69.236 366.021 C 69.194 365.828 69.116 365.643 69.02 365.471 C 68.86 365.186 68.615 364.953 68.47 364.66 C 68.384 364.487 68.373 364.285 68.338 364.095 C 68.332 364.063 68.321 363.985 68.35 363.999 C 69.756 364.667 68.404 363.918 69.026 363.326 C 70.365 362.052 73.367 361.929 69.78 362.75 C 69.724 362.762 69.659 362.782 69.609 362.756 C 69.513 362.705 69.422 362.63 69.37 362.535 C 69.307 362.421 69.28 362.286 69.28 362.156 C 69.279 362.02 69.317 361.883 69.365 361.755 C 69.389 361.692 69.433 361.629 69.491 361.596 C 69.561 361.557 72.013 360.944 71.501 360.653 C 71.396 360.593 71.26 360.598 71.141 360.617 C 70.837 360.665 70.552 360.804 70.248 360.851 C 70.094 360.875 69.931 360.869 69.78 360.827 C 69.674 360.798 69.577 360.729 69.503 360.647 C 67.967 358.918 69.889 360.024 69.972 359.962 C 75.117 356.159 66.501 355.944 67.35 352.221 C 67.519 351.48 80.172 344.649 82.179 346.025 C 83.385 346.851 88.166 349.72 91.563 350.975 C 101.71 354.724 114.493 354.222 123.571 360.476 C 123.571 360.476 132.7 362.828 132.7 362.828 C 140.555 363.45 146.116 370.54 155.844 373.359 C 158.61 374.16 160.518 373.746 164.939 376.399 L 164.939 376.399 L 164.939 376.495 C 163.985 378.403 165.894 378.329 167.246 377.937 L 167.246 377.937 L 167.246 377.937 Z  M 83.525 449.066 L 84.198 451.853 L 86.313 451.853 L 83.525 449.066 Z  M 177.916 411.002 C 177.277 413.173 184.737 418.069 175.993 419.653 C 175.939 419.663 175.871 419.658 175.831 419.62 C 173.325 417.229 172.878 416.774 169.805 415.316 C 169.648 415.241 169.481 415.166 169.361 415.039 C 168.633 414.272 177.092 411.162 177.916 411.002 L 177.916 411.002 L 177.916 411.002 Z  M 188.008 411.098 C 191.193 419.129 177.684 406.28 188.008 411.098 L 188.008 411.098 Z  M 170.899 420.134 L 172.052 420.518 L 170.995 420.134 L 170.899 420.134 L 170.899 420.134 Z  M 168.592 417.25 L 169.457 417.154 L 168.592 417.25 L 168.592 417.25 Z " fill-rule="evenodd" fill="rgb(251,217,46)" vector-effect="non-scaling-stroke" stroke-width="0.881" stroke="rgb(255,255,255)" stroke-linejoin="round" stroke-linecap="butt" stroke-miterlimit="4"/></a>
<a target="_top" xlink:href="/?page_id=103/#search-by-country&amp;country=8" class="country_link" alt="browse clinics by country">
<path id="bel" class="legal" d=" M 210.02 292.87 C 205.714 291.435 205.042 289.988 202.21 286.778 C 199.516 283.725 204.387 288.241 197.685 286.765 C 197.445 286.712 197.22 286.598 197.01 286.472 C 196.927 286.423 196.866 286.338 196.824 286.251 C 196.344 285.247 198.285 285.571 196.984 284.459 C 196.922 284.407 196.94 284.3 196.948 284.219 C 196.961 284.076 196.974 283.924 197.044 283.798 C 197.381 283.19 197.69 283.192 197.716 282.585 C 197.721 282.487 197.705 282.381 197.651 282.299 C 197.551 282.146 197.433 281.989 197.272 281.904 C 196.98 281.749 196.655 281.65 196.329 281.598 C 195.818 281.517 195.295 281.544 194.779 281.508 C 194.464 281.486 194.147 281.48 193.836 281.425 C 193.836 281.425 185.966 274.94 185.966 274.94 C 184.194 270.261 187.598 269.107 191.949 267.782 L 191.949 267.782 L 192.141 268.167 C 191.908 271.206 200.681 270.144 200.571 268.837 C 200.534 268.394 199.97 267.606 200.645 267.379 C 200.808 267.323 200.99 267.369 201.161 267.39 C 201.298 267.408 201.431 267.449 201.561 267.494 C 201.591 267.504 201.641 267.524 201.633 267.554 C 201.557 267.878 201.252 268.043 201.675 268.225 C 201.788 268.274 201.912 268.333 202.035 268.316 C 204.383 268 206.508 268.447 211.065 271.837 C 212.367 272.805 209.284 275.605 209.986 277.141 C 210.185 277.578 211.2 277.507 211.354 277.515 C 211.742 277.534 212.131 277.466 212.519 277.491 L 212.519 277.491 L 212.615 277.491 C 215.873 283.192 214.004 281.221 210.58 286.228 C 209.447 287.885 211.047 292.57 210.116 292.485 L 210.116 292.485 L 210.02 292.87 L 210.02 292.87 Z " fill="rgb(10,170,39)" vector-effect="non-scaling-stroke" stroke-width="0.881" stroke="rgb(255,255,255)" stroke-linejoin="round" stroke-linecap="butt" stroke-miterlimit="4"/></a>
<a target="_top" xlink:href="/?page_id=103/#search-by-country&amp;country=14" class="country_link" alt="browse clinics by country">
<path id="ita" class="semi_legal" d=" M 300.662 433.494 C 291.326 438.521 300.47 448.169 296.625 453.776 C 294.934 456.241 288.73 449.741 287.782 449.162 C 283.748 446.697 269.863 446.218 268.846 440.896 C 267.189 432.229 283.788 439.068 289.181 437.048 C 291.874 436.039 298.73 432.166 300.662 433.494 L 300.662 433.494 Z  M 237.222 398.026 C 237.961 401.475 241.069 401.099 241.163 403.889 C 241.17 404.087 241.218 404.283 241.273 404.473 C 241.335 404.685 241.372 404.92 241.511 405.091 C 241.594 405.193 241.754 405.245 241.884 405.223 C 241.884 405.223 242.451 404.963 242.451 404.963 C 242.587 405.157 242.665 405.394 242.704 405.628 C 243.121 408.154 241.515 411.782 241.355 414.174 C 241.157 417.144 241.276 420.157 240.445 423.043 C 239.018 427.997 234.492 418.812 234.636 426.186 C 234.639 426.355 234.701 426.556 234.6 426.691 C 234.421 426.931 234.128 427.062 233.87 427.214 C 233.59 427.377 233.287 427.496 232.993 427.631 C 232.776 427.73 232.564 427.843 232.337 427.914 C 228.222 429.195 228.631 421.881 229.34 418.596 C 230.415 413.616 225.961 407.923 226.36 404.274 C 226.36 404.274 227.129 401.39 227.129 401.39 C 230.845 400.883 232.011 404.395 237.222 398.026 L 237.222 398.026 Z  M 276.824 330.741 C 276.441 334.572 273.009 337.392 277.328 340.522 C 277.328 340.522 278.908 342.443 278.908 342.443 C 276.847 343.576 271.531 342.555 271.405 342.576 C 271.121 342.625 269.414 343.002 269.098 343.213 C 268.763 343.437 262.841 346.866 264.04 346.794 C 267.721 346.572 264.686 357.697 266.058 360.443 C 266.829 361.984 272.421 365.47 273.027 365.898 C 279.741 370.633 279.379 377.669 285.559 383.115 C 287.652 384.96 290.541 387.736 293.414 387.934 C 294.245 387.992 303.983 385.711 303.08 388.618 C 302.507 390.46 298.668 391.505 301.431 393.412 C 305.914 396.508 327.198 399.491 327.296 407.671 C 327.433 419.094 315.428 397.797 311.331 404.947 C 310.732 405.992 307.334 412.694 307.946 414.315 C 309.055 417.254 318.333 416.875 315.609 422.893 C 313.291 428.016 311.203 423.912 309.985 430.419 C 309.955 430.583 309.937 430.756 309.856 430.902 C 308.674 433.032 305.021 438.391 302.296 437.531 C 297.136 435.904 306.579 425.409 306.467 425.154 C 304.865 421.521 302.103 417.881 301.29 414.06 C 300.568 410.669 295.67 410.206 292.885 409.614 C 291.762 409.376 293.319 405.201 290.691 403.954 C 289.321 403.303 287.804 406.658 286.436 405.331 C 285.437 404.362 288.908 404.024 286.217 402.246 C 286.027 402.121 285.834 401.995 285.621 401.914 C 285.581 401.899 285.526 401.94 285.508 401.979 C 285.305 402.419 285.693 402.419 284.924 402.645 C 284.661 402.723 284.378 402.707 284.103 402.706 C 283.887 402.705 283.667 402.689 283.456 402.64 C 283.395 402.625 283.319 402.582 283.312 402.519 C 283.292 402.351 283.373 402.184 283.384 402.015 C 283.389 401.935 283.389 401.85 283.36 401.775 C 283.215 401.398 283.075 401.015 282.867 400.669 C 282.56 400.157 278.892 394.798 278.792 397.765 C 278.782 398.058 270.382 396.214 269.326 395.046 C 267.589 393.123 264.979 388.873 262.502 387.933 C 260.183 387.054 257.736 384.766 254.716 383.512 C 252.995 382.797 250.021 374.397 248.973 372.121 C 247.846 369.675 247.275 364.303 244.912 362.99 C 242.891 361.867 238.656 360.342 236.189 359.001 C 232.842 357.181 229.773 359.601 228.187 362.209 C 222.801 371.061 224.253 361.018 220.077 361.2 C 219.926 361.206 219.778 361.155 219.632 361.116 C 218.237 360.737 216.824 359.471 216.217 358.175 C 214.376 354.249 217.717 345.182 216.125 339.938 C 216.093 339.833 217.107 338.762 217.188 338.688 C 219.438 339.688 222 339.5 223.563 338.125 C 224.59 338.223 224.771 339.42 225.495 339.104 C 225.495 339.104 229.313 332.438 229.313 332.438 C 229.759 333.586 232.181 336.811 233.855 336.994 C 233.888 338.916 235.139 339.696 235.672 340.66 C 235.672 340.66 236.187 333.528 236.375 333.5 C 236.563 333.472 238.853 334.171 241.163 334.73 C 242.183 334.976 242.464 333.258 243.313 333.375 C 244.388 333.523 245.924 335.445 246.074 335.115 C 246.179 334.884 243.867 327.528 246.956 331.162 C 247.102 331.333 247.277 331.49 247.48 331.588 C 247.643 331.666 247.834 331.667 248.015 331.671 C 248.136 331.674 248.255 331.637 248.372 331.606 C 248.439 331.589 248.511 331.571 248.565 331.527 C 249.563 328.688 248 328.25 250.25 327.375 C 250.421 327.391 253.223 328.718 253.274 328.627 C 253.743 327.789 254.758 325.871 254.893 325.845 C 266.408 323.612 262.242 329.575 276.824 330.741 L 276.824 330.741 L 276.824 330.741 Z  M 266.347 364.191 C 267.842 361.948 267.124 365.181 266.347 364.191 L 266.347 364.191 Z " fill-rule="evenodd" fill="rgb(251,217,46)" vector-effect="non-scaling-stroke" stroke-width="0.881" stroke="rgb(255,255,255)" stroke-linejoin="round" stroke-linecap="butt" stroke-miterlimit="4"/>
</a>
<a target="_blank" xlink:href=" http://aborcja.org/" class="country_link" alt="browse clinics by country">
<path id="pol" class="illegal" d=" M 283.264 275.568 C 286.786 275.046 288.698 277.322 292.684 278.259 C 298.81 279.701 290.967 280.978 298.205 284.069 C 301.322 285.4 297.377 279.566 303.738 281.239 C 303.939 281.292 304.155 281.255 304.362 281.239 C 304.572 281.223 304.776 281.143 304.987 281.143 C 305.198 281.143 305.401 281.239 305.612 281.239 C 305.823 281.239 306.048 281.237 306.237 281.143 C 306.333 281.095 306.351 280.958 306.381 280.855 C 306.416 280.731 306.371 280.586 306.429 280.47 C 306.461 280.406 306.55 280.374 306.621 280.374 C 306.667 280.374 306.695 280.431 306.717 280.47 C 306.853 280.714 306.981 280.962 307.09 281.218 C 307.176 281.42 307.33 281.623 307.302 281.84 C 307.121 283.235 305.343 281.995 307.679 284.219 C 307.778 284.314 307.888 284.405 308.015 284.459 C 309.456 285.077 315.606 283.378 316.702 289.001 C 317.4 292.585 325.537 285.099 324.884 292.197 C 324.88 292.245 324.867 292.32 324.911 292.338 C 324.911 292.338 334.532 289.722 334.532 289.722 C 337.861 287.659 338.388 287.938 344.252 289.698 C 344.252 289.698 350.741 290.851 350.741 290.851 C 350.377 289.389 346.7 286.885 347.845 284.096 C 350.054 278.714 354.279 275.029 356.691 271.509 C 356.691 271.509 356.604 265.86 356.604 265.86 C 353.35 262.864 352.6 260.708 350.26 257.978 C 349.822 257.467 350.619 247.293 346.559 250 C 346.253 250.204 346.094 250.592 345.673 250.059 C 345.511 249.853 345.377 249.595 345.374 249.333 C 345.335 246.101 350.833 245.103 350.271 241.998 C 349.476 237.601 346.768 234.036 344.835 230.103 C 343.438 227.259 342.545 223.405 338.912 223.248 C 330.619 222.89 317.848 229.548 309.195 228.733 C 302.89 228.139 309.627 219.772 300.919 223.774 C 298.351 224.954 291.716 231.389 289.896 231.929 C 288.235 232.423 276.749 235.445 275.723 237.319 C 274.441 239.66 279.001 243.951 277.936 246.708 C 275irl.008 254.283 277.318 248.17 279.967 253.966 C 281.386 257.071 280.243 260.633 280.323 263.673 C 280.404 266.728 283.642 267.119 283.859 270.209 C 283.979 271.931 283.947 273.946 283.264 275.568 L 283.264 275.568 L 283.264 275.568 Z  M 273.652 239.331 L 273.748 239.331 M 273.748 239.331 C 274.012 239.594 274.012 239.594 273.748 239.331 L 273.748 239.331 Z  M 274.229 239.523 L 274.325 239.619 M 274.325 239.619 L 274.325 239.619 Z  M 274.517 239.619 L 274.517 239.619 Z  M 274.613 239.715 L 274.709 239.715 M 274.709 239.715 C 274.86 239.715 274.86 239.715 274.709 239.715 L 274.709 239.715 Z  M 274.805 239.811 L 274.901 239.811 M 274.901 239.811 C 275.03 239.811 275.03 239.811 274.901 239.811 L 274.901 239.811 Z  M 275.766 240.003 M 275.766 240.003 L 275.766 240.003 Z  M 307.775 224.528 C 309.759 225.52 308.334 226.205 307.775 224.528 L 307.775 224.528 L 307.775 224.528 Z " fill-rule="evenodd" fill="rgb(152,0,0)" vector-effect="non-scaling-stroke" stroke-width="0.881" stroke="rgb(255,255,255)" stroke-linejoin="round" stroke-linecap="butt" stroke-miterlimit="4"/>
</a>
<a target="_top" xlink:href="/?page_id=103/#search-by-country&amp;country=2" class="country_link" alt="browse clinics by country">
<path id="deu" class="semi_legal" d=" M 276.151 240.003 C 276.151 240.003 276.056 251.364 276.056 251.364 C 278.406 254.096 283.058 258.469 280.801 262.796 C 278.657 266.905 287.934 269.862 282.899 276.152 C 279.408 278.557 280.09 273.757 279.125 274.268 C 277.773 276.086 283.332 275.89 278.102 277.847 C 277.783 277.966 265.171 282.289 264.831 282.657 C 260.803 287.017 263.121 282.008 261.207 283.632 C 261.207 283.632 265.902 293.975 265.902 293.975 C 266.693 295.294 271.025 298.491 272.342 299.286 C 274.007 300.29 275.121 300.636 276.104 302.141 C 277.397 304.121 271.499 308.468 269.068 309.719 C 265.079 311.774 272.705 317.049 270.24 319.267 C 270.24 319.267 262.057 317.837 262.057 317.837 C 259.594 317.903 258.412 319.03 256.843 318.991 C 255.596 318.959 255.626 320.173 254.625 320.313 C 252.515 320.606 252.385 318.361 250.625 318.5 C 247 321.563 243.565 320.96 240.226 318.642 C 233.253 313.802 231.332 319.208 230.258 318.636 C 230.258 318.636 223.399 318.343 223.399 318.343 C 222.283 315.283 224.475 311.267 225.495 308.634 C 225.495 308.634 229.749 300.626 229.749 300.626 C 226.93 297.515 218.479 298.273 217.998 297.966 C 214.554 295.766 215.71 289.366 215.571 289.301 C 213.306 288.242 213.544 278.125 213.222 275.751 C 212.9 273.379 216.076 269.84 213.336 265.944 C 212.125 264.221 219.709 261.395 221.398 259.315 C 223.371 256.884 216.978 254.81 219.392 253.845 C 221.359 253.058 221.951 255.459 221.939 252.499 C 221.938 252.273 221.973 252.044 222.035 251.826 C 222.114 251.548 222.252 251.29 222.359 251.021 C 223.223 248.873 222.204 241.042 224.429 240.884 C 229.628 240.514 223.595 238.369 229.484 240.724 C 229.571 240.759 229.684 240.784 229.725 240.869 C 229.909 241.254 229.994 241.678 230.133 242.082 C 230.388 242.821 230.602 243.575 230.905 244.295 C 231.011 244.549 231.17 244.783 231.355 244.988 C 231.517 245.167 231.706 245.339 231.929 245.431 C 232.154 245.524 232.411 245.534 232.654 245.524 C 232.806 245.518 232.949 245.446 233.089 245.386 C 233.139 245.365 233.198 245.334 233.215 245.283 C 236.855 233.908 235.156 240.422 242.569 244.238 C 242.681 244.295 242.851 244.338 242.946 244.256 C 244.445 242.955 236.202 238.042 236.489 237.012 C 238.826 228.622 233.182 237.535 237.072 231.599 C 237.19 231.418 237.314 231.164 237.222 230.968 C 236.969 230.432 236.489 230.036 236.117 229.574 C 235.688 229.043 235.214 228.546 234.819 227.988 C 234.713 227.838 234.669 227.651 234.627 227.472 C 234.627 227.472 234.435 225.874 234.435 225.874 C 238.492 224.338 243.191 228.236 243.951 228.853 C 245.211 229.877 245.047 236.119 251.673 232.218 C 251.86 232.108 252.09 232.07 252.306 232.07 C 252.434 232.07 252.553 232.147 252.658 232.22 C 252.722 232.264 252.759 232.34 252.794 232.41 C 252.868 232.561 252.977 232.711 252.983 232.879 C 253.031 234.374 248.986 237.231 250.46 237.799 C 257.008 240.324 259.465 231.419 266.731 231.353 C 269.501 231.327 273.008 241.051 276.151 240.003 L 276.151 240.003 L 276.151 240.003 Z  M 267.404 232.602 C 267.879 230.465 271.362 227.606 271.501 229.52 C 271.689 232.117 271.488 235.519 267.404 232.602 L 267.404 232.602 L 267.404 232.602 Z " fill-rule="evenodd" fill="rgb(251,217,46)" vector-effect="non-scaling-stroke" stroke-width="0.881" stroke="rgb(255,255,255)" stroke-linejoin="round" stroke-linecap="butt" stroke-miterlimit="4"/></a>
<path id="swe" class="non_indexed legal" d=" M 262.021 220.779 C 262.221 220.18 261.727 219.863 261.252 219.626 L 261.252 219.626 L 260.868 218.665 C 261.365 218.975 263.672 220.229 262.021 220.779 L 262.021 220.779 L 262.021 220.779 Z  M 270.672 169.547 C 270.782 173.729 269.72 176.358 266.587 179.075 C 256.751 187.605 260.857 165.73 270.672 169.547 L 270.672 169.547 L 270.672 169.547 Z  M 276.728 175.314 C 277.013 178.025 271.622 190.908 272.502 184.277 C 272.849 181.664 274.22 176.732 276.728 175.314 L 276.728 175.314 L 276.728 175.314 Z  M 260.483 217.607 M 262.406 216.358 C 264.389 214.092 262.435 209.601 258.783 210.819 C 258.63 210.87 258.364 211.233 258.369 211.071 C 258.375 210.866 258.614 210.729 258.789 210.621 C 260.385 209.632 263.092 211.314 262.153 209.497 C 261.941 209.086 261.727 208.673 261.577 208.236 C 261.55 208.157 261.608 208.073 261.637 207.995 C 261.655 207.945 261.674 207.887 261.716 207.855 C 261.781 207.805 261.861 207.755 261.942 207.762 C 263.124 207.868 265.728 209.707 263.205 207.42 C 263.038 207.269 262.879 207.107 262.752 206.922 C 262.689 206.83 262.66 206.715 262.646 206.605 C 262.64 206.553 262.67 206.503 262.694 206.457 C 264.443 203.181 262.791 202.545 259.714 197.71 C 258.424 195.682 255.612 191.032 255.677 188.771 C 255.934 179.851 258.259 185.093 254.134 183.706 C 251.45 182.803 252.055 176.366 251.64 174.065 C 251.64 174.065 255.849 173.279 255.849 173.279 C 255.938 172.68 255.971 172.064 255.906 171.462 C 255.82 170.673 255.572 169.911 255.401 169.137 C 255.291 168.638 255.144 168.146 255.061 167.642 C 255.016 167.368 255.009 167.089 255.018 166.812 C 255.022 166.695 255.066 166.583 255.101 166.471 C 255.126 166.39 255.144 166.303 255.197 166.237 C 255.301 166.108 255.426 165.995 255.562 165.899 C 255.777 165.747 256.035 165.661 256.242 165.498 C 257.492 164.512 259.886 159.138 260.173 156.46 C 260.605 152.423 255.787 149.523 260.351 147.944 C 260.474 147.901 260.634 147.851 260.676 147.728 C 261.104 146.469 261.442 145.18 261.733 143.883 C 262.235 141.645 256.557 140.243 257.673 135.191 C 258.065 133.417 257.404 121.468 256.701 119.533 C 256.701 119.533 255.518 123.825 255.518 123.825 C 254.737 121.674 256.29 115.796 257.386 113.869 C 257.713 113.296 258.073 112.74 258.468 112.211 C 258.814 111.747 259.2 111.311 259.603 110.895 C 259.746 110.748 259.926 110.639 260.099 110.529 C 262.297 109.128 266.277 111.485 267.167 108.806 C 268.638 104.375 263.595 104.689 265.229 100.532 C 271.119 85.554 264.489 102.859 267.596 94.573 C 268.265 92.791 268.763 89.341 268.461 87.172 C 267.964 83.587 270.113 81.034 271.835 78.001 C 275.802 71.009 275.388 73.032 274.036 66.698 C 273.947 66.278 277.894 58.701 278.587 57.96 C 281.451 54.897 283.309 62.674 281.95 53.039 C 281.918 52.816 281.913 52.589 281.929 52.365 C 281.934 52.298 281.972 52.235 282.014 52.184 C 282.1 52.078 282.182 51.951 282.308 51.898 C 282.604 51.774 282.922 51.671 283.243 51.666 C 283.884 51.656 284.529 51.725 285.158 51.853 C 287.312 52.291 290.246 54.35 292.035 52.215 C 293.602 50.345 288.297 44.75 292.395 43.725 L 292.395 43.725 L 292.588 43.725 C 295.004 45.336 296.733 47.986 300.277 49.684 C 303.888 51.415 305.818 53.284 308.736 54.611 C 309.275 54.856 310.783 63.494 310.715 64.115 C 310.282 68.101 317.305 76.41 317.387 80.539 C 317.421 82.286 308.539 81.788 307.823 84.528 C 307.672 85.107 306.58 85.161 307.174 87.736 C 307.184 87.778 307.142 87.828 307.102 87.844 C 306.858 87.947 306.605 88.033 306.345 88.085 C 305.821 88.189 305.276 88.178 304.759 88.31 C 304.525 88.37 304.312 88.506 304.12 88.654 C 303.994 88.751 303.907 88.894 303.824 89.031 C 303.777 89.108 303.741 89.196 303.738 89.286 C 303.736 89.34 303.756 89.424 303.81 89.43 C 304.889 89.565 304.993 89.564 305.792 90.74 C 305.908 90.911 305.972 91.112 306.045 91.305 C 306.083 91.407 306.124 91.513 306.126 91.622 C 306.128 91.813 306.126 92.015 306.054 92.193 C 305.941 92.471 305.774 92.73 305.58 92.96 C 305.282 93.314 304.902 93.591 304.589 93.933 C 301.033 97.818 309.092 97.569 305.672 102.563 C 305.487 102.834 305.303 103.112 305.179 103.416 C 304.458 105.196 304.645 107.208 303.816 108.952 C 302.829 111.028 297.101 112.799 296.913 115.912 C 296.797 117.836 293.704 118.876 291.539 120.724 C 291.539 120.724 292.516 122.64 292.516 122.64 C 292.369 122.791 292.239 122.957 292.107 123.121 C 292.007 123.245 291.932 123.392 291.819 123.505 C 291.705 123.618 291.576 123.719 291.434 123.794 C 291.358 123.834 291.267 123.852 291.182 123.842 C 290.997 123.819 290.805 123.787 290.641 123.697 C 290.641 123.697 287.673 127.602 287.673 127.602 C 287.503 127.638 287.353 127.741 287.205 127.831 C 287.11 127.888 287.018 127.956 286.949 128.042 C 286.857 128.155 286.736 128.274 286.727 128.42 C 286.727 128.42 288.923 136.734 288.923 136.734 C 289.121 137.031 289.361 137.306 289.509 137.63 C 290.441 139.673 286.749 136.505 286.508 138.188 C 286.508 138.188 288.875 150.407 288.875 150.407 C 292.543 150.135 299.459 156.29 297.162 154.803 C 296.224 154.196 296.247 154.643 297.069 155.225 C 297.187 155.309 297.306 155.398 297.394 155.513 C 297.657 155.859 303.549 159.633 302.043 161.386 C 301.846 161.615 295.664 168.154 294.459 166.618 C 293.684 165.631 294.938 162.055 292.684 161.377 C 292.559 161.339 292.422 161.274 292.299 161.317 C 290.017 162.108 291.987 162.049 292.107 162.242 C 292.467 162.822 292.258 163.168 292.383 163.888 C 293.111 168.062 286.474 162.685 282.976 166.183 C 282.976 166.183 292.203 168.394 292.203 168.394 C 292.473 168.048 290.995 166.926 292.78 167.973 C 294.851 169.188 299.745 163.921 300.154 166.468 C 300.235 166.971 295.155 172.812 295.021 172.624 C 293.735 170.823 294.921 166.167 293.822 172.459 C 293.742 172.916 293.562 173.353 293.369 173.774 C 293.369 173.774 285.09 176.948 285.09 176.948 C 288.125 180.782 290.38 174.67 286.82 178.871 C 286.82 178.871 289.599 186.251 289.599 186.251 C 288.795 186.446 286.171 185.627 288.214 187.017 C 288.535 187.235 288.896 187.391 289.205 187.625 C 289.381 187.758 289.535 187.923 289.656 188.107 C 289.708 188.186 289.702 188.292 289.704 188.387 C 289.755 191.357 290.01 196.912 289.223 200.306 C 289.223 200.306 283.648 208.38 283.648 208.38 C 283.487 208.107 284.323 207.342 283.132 208.019 C 279.601 210.027 277.16 208.022 274.669 212.583 C 272.435 216.677 277.11 219.973 268.173 219.914 C 262.843 219.879 266.983 216.21 263.175 211.263 C 263.175 211.263 262.406 216.358 262.406 216.358 L 262.406 216.358 L 262.406 216.358 Z  M 292.491 192.52 C 292.491 192.52 290.088 206.746 290.088 206.746 C 289.087 203.249 290.332 195.399 292.491 192.52 L 292.491 192.52 L 292.491 192.52 Z  M 305.468 189.925 C 305.468 190.227 301.238 196.787 300.974 196.806 C 300.974 196.806 300.738 187.145 300.738 187.145 C 303.103 183.118 306.78 182.036 304.122 187.329 C 303.119 189.327 305.468 188.836 305.468 189.925 L 305.468 189.925 L 305.468 189.925 Z  M 308.736 85.537 C 309.022 85.681 309.645 86.144 308.736 85.537 L 308.736 85.537 Z  M 302.104 111.106 C 302.104 111.106 302.104 111.106 302.104 111.106 L 302.104 111.106 Z  M 259.138 214.435 L 259.041 214.147 C 259.041 213.709 258.95 213.253 258.561 212.994 L 258.561 212.994 L 258.465 212.609 C 259.248 212.609 259.138 213.949 259.138 214.435 L 259.138 214.435 L 259.138 214.435 Z " fill-rule="evenodd" fill="rgb(10,170,39)" vector-effect="non-scaling-stroke" stroke-width="0.881" stroke="rgb(255,255,255)" stroke-linejoin="round" stroke-linecap="butt" stroke-miterlimit="4"/>
<a target="_top" xlink:href="/?page_id=103/#search-by-country&amp;country=12" class="country_link" alt="browse clinics by country">
<path id="nor" class="semi_legal" d=" M 309.313 60.546 L 309.216 60.546 M 334.592 24.212 C 334.665 24.309 330.521 33.057 329.69 35.555 Q 329.69 35.555 329.125 28.375 L 321.25 24.25 L 314.125 30.125 L 313.5 44.875 L 300.875 46.25 L 295 39.875 L 292.75 43.625 C 288.16 44.772 294.654 50.765 291.563 52.704 C 288.281 54.763 281.418 48.15 282.121 54.541 C 283.167 64.049 280.57 54.044 277.661 59.37 C 276.558 61.388 275.493 63.427 274.474 65.488 C 272.965 68.538 276.295 70.779 274.27 74.187 C 274.27 74.187 267.5 83.423 267.5 83.423 C 267.874 86.54 267.63 89.126 267.085 92.281 C 266.708 94.466 268.327 107.711 266.964 109.269 C 264.621 111.947 259.719 109.218 257.806 113.196 C 256.533 115.842 254.821 120.344 255.365 123.331 C 255.365 123.331 256.701 119.533 256.701 119.533 C 256.701 119.533 257.264 134.524 257.264 134.524 C 257.199 135.912 257.063 137.295 257.002 138.683 C 256.889 141.241 264.366 143.471 262.26 146.704 C 258.674 152.211 257.122 145.029 259.912 155.868 C 261.475 161.94 257.354 160.876 255.467 165.535 C 254.208 168.644 257.442 172.31 255.114 175.148 C 253.99 176.518 248.76 168.816 248.564 167.625 C 248.564 167.625 247.687 163.023 247.687 163.023 C 246.01 163.607 249.327 166.902 247.814 167.544 C 247.814 167.544 245.84 164.699 245.84 164.699 C 246.456 180.488 248.436 171.737 241.494 173.43 C 237.261 174.463 234.98 192.353 221.882 185.672 C 219.351 184.381 225.184 182.978 222.84 182.223 C 221.808 181.89 221.122 183.253 219.886 182.68 C 219.642 182.567 219.443 182.372 219.243 182.191 C 219.111 182.073 219.004 181.929 218.896 181.789 C 218.747 181.594 218.613 181.388 218.473 181.186 C 218.333 180.984 218.203 180.775 218.058 180.577 C 217.995 180.491 217.925 180.411 217.851 180.334 C 217.776 180.258 217.693 180.191 217.613 180.12 C 217.575 180.086 217.542 180.046 217.499 180.019 C 217.457 179.993 217.41 179.972 217.361 179.964 C 217.249 179.945 217.134 179.944 217.02 179.938 C 216.906 179.932 216.791 179.937 216.676 179.928 C 216.622 179.924 216.567 179.914 216.514 179.898 C 216.462 179.882 216.413 179.857 216.364 179.832 C 216.313 179.806 216.26 179.78 216.215 179.745 C 216.17 179.71 216.132 179.666 216.097 179.622 C 215.984 179.481 215.872 179.338 215.772 179.189 C 215.671 179.039 215.583 178.881 215.493 178.725 C 214.673 177.312 214.215 175.886 215.237 174.416 C 215.473 174.077 222.817 169.776 221.699 169.401 C 221.699 169.401 213.516 166.964 213.516 166.964 C 215.934 165.517 219.222 165.095 220.882 162.819 C 221.695 161.703 217.553 163.653 216.748 162.53 C 216.003 161.491 223.234 158.474 219.659 158.464 C 219.211 158.463 218.761 158.601 218.357 158.795 C 217.844 159.041 217.46 159.507 216.952 159.764 C 216.788 159.847 216.527 159.917 216.402 159.783 C 216.248 159.617 216.334 159.332 216.341 159.105 C 216.347 158.878 216.374 158.648 216.439 158.43 C 216.5 158.226 216.601 158.033 216.712 157.852 C 216.99 157.399 217.33 156.986 217.601 156.53 C 217.72 156.33 217.832 156.118 217.879 155.89 C 217.89 155.836 217.804 155.808 217.757 155.781 C 217.736 155.768 217.708 155.77 217.683 155.774 C 217.659 155.778 217.636 155.792 217.613 155.802 C 217.547 155.831 217.476 155.852 217.415 155.892 C 216.24 156.665 215.736 160.477 214.593 157.683 C 214.521 157.507 214.456 157.327 214.393 157.147 C 214.327 156.958 214.261 156.769 214.205 156.577 C 214.149 156.384 214.106 156.188 214.057 155.994 C 214.057 155.994 217.905 151.527 217.905 151.527 C 217.748 151.341 213.218 154.959 213.71 150.71 C 213.761 150.27 214.359 150.058 214.673 149.975 C 215.066 149.871 215.474 149.834 215.874 149.763 C 216.175 149.71 216.486 149.699 216.776 149.602 C 216.856 149.575 216.936 149.493 216.941 149.408 C 216.945 149.338 216.851 149.298 216.796 149.253 C 216.748 149.214 216.698 149.163 216.636 149.157 C 215.493 149.038 213.507 151.177 213.531 148.866 C 213.569 145.309 221.189 147.95 222.842 146.709 C 226.186 144.197 224.546 153.531 227.194 148.479 C 227.194 148.479 229.876 142.614 229.876 142.614 C 229.876 142.614 221.174 146.488 221.174 146.488 C 219.661 146.354 214.295 147.497 213.748 145.004 C 213.748 145.004 217.887 143.186 217.887 143.186 C 215.78 141.495 211.599 141.538 217.616 142.665 C 217.78 142.695 217.945 142.724 218.111 142.725 C 218.277 142.726 218.444 142.7 218.608 142.669 C 218.689 142.654 218.769 142.623 218.843 142.586 C 218.919 142.547 218.983 142.487 219.055 142.441 C 219.089 142.42 219.129 142.409 219.159 142.383 C 219.187 142.359 219.212 142.328 219.227 142.294 C 219.241 142.264 219.252 142.228 219.243 142.196 C 218.925 140.994 213.093 141.524 214.533 138.488 C 214.638 138.267 214.741 138.041 214.883 137.842 C 214.883 137.842 225.474 137.434 225.474 137.434 C 219.75 136.06 215.189 139.858 215.386 135.198 C 215.6 130.123 222.605 136.761 222.844 134.955 C 222.997 133.794 218.235 132.441 221.696 131.202 C 221.818 131.158 221.944 131.12 222.071 131.096 C 222.2 131.071 222.331 131.064 222.462 131.054 C 222.52 131.049 222.578 131.044 222.636 131.051 C 222.694 131.059 222.749 131.081 222.804 131.099 C 222.85 131.114 222.901 131.121 222.941 131.149 C 222.976 131.175 223.003 131.214 223.02 131.255 C 223.647 132.759 223.374 132.458 224.322 134.08 C 224.343 134.116 224.376 134.002 224.364 133.962 C 224.012 132.817 222.5 131.409 223.726 130.339 C 223.726 130.339 228.875 132.643 228.875 132.643 C 228.875 132.643 224.057 127.632 224.057 127.632 C 235.228 127.826 228.408 132.995 226.913 124.683 C 226.913 124.683 236.871 126.037 236.871 126.037 C 240.743 121.419 229.696 127 237.913 122.311 C 237.99 122.266 238.058 122.203 238.113 122.132 C 238.176 122.051 238.229 121.96 238.263 121.863 C 238.298 121.764 238.307 121.657 238.318 121.553 C 238.327 121.478 238.327 121.402 238.321 121.328 C 238.314 121.252 238.289 121.178 238.279 121.102 C 238.268 121.013 238.273 120.922 238.258 120.834 C 238.243 120.747 238.223 120.66 238.189 120.579 C 238.151 120.487 238.124 120.379 238.045 120.319 C 237.935 120.235 237.793 120.155 237.657 120.175 C 236.493 120.351 235.307 122.066 235.78 119.756 C 235.807 119.625 235.812 119.481 235.886 119.369 C 236.01 119.182 236.154 118.986 236.356 118.887 C 236.701 118.718 237.09 118.643 237.472 118.593 C 238.107 118.511 238.758 118.59 239.392 118.495 C 239.864 118.423 240.336 118.298 240.769 118.096 C 241.06 117.961 241.299 117.729 241.524 117.501 C 244.972 114.011 242.94 119.267 243.878 119.175 C 244.949 119.07 244.946 120.175 245.739 120.439 C 245.739 120.439 252.599 113.617 252.599 113.617 C 252.611 112.591 252.227 111.484 251.609 110.667 C 249.361 107.692 248.319 117.573 244.508 117.573 C 239.392 117.573 250.027 113.597 242.705 115.198 C 242.275 115.292 241.889 115.394 241.539 115.084 C 241.539 115.084 247.243 107.12 247.243 107.12 C 249.747 106.291 252.227 105.834 254.199 103.394 C 256.152 100.977 249.122 104.394 253.533 99.781 C 253.557 99.756 253.573 99.721 253.578 99.686 C 253.583 99.648 253.57 99.609 253.563 99.571 C 253.557 99.546 253.554 99.518 253.539 99.496 C 253.525 99.476 253.5 99.464 253.478 99.451 C 253.394 99.402 253.246 99.405 253.22 99.311 C 253.19 99.205 253.263 99.069 253.356 99.012 C 253.741 98.777 254.178 98.642 254.594 98.47 C 255.256 98.198 255.937 97.971 256.592 97.681 C 257.056 97.476 257.516 97.255 257.946 96.986 C 258.355 96.729 258.765 96.457 259.102 96.111 C 262.661 92.47 254.568 96.374 256.418 94.842 C 256.786 94.537 257.185 94.268 257.6 94.031 C 261.279 91.932 255.487 97.618 255.843 93.565 C 256.101 90.618 260.667 85.27 260.183 84.785 C 260.133 84.735 260.065 84.705 260.003 84.672 C 254.152 81.608 273.698 86.629 259.076 82.63 C 259.076 82.63 263.271 73.619 263.271 73.619 C 263.271 73.619 269.687 68.464 269.687 68.464 C 268.281 68.643 266.994 69.504 265.578 69.56 C 265.578 69.56 269.833 65.965 269.833 65.965 C 270.203 66.167 270.542 66.428 270.852 66.714 C 271.223 67.056 271.544 67.448 271.864 67.838 C 272.046 68.061 272.363 68.836 272.354 68.548 C 272.324 67.595 271.847 66.694 271.797 65.741 C 271.789 65.592 272.064 65.61 272.197 65.543 C 272.33 65.476 272.465 65.414 272.594 65.34 C 272.675 65.294 272.758 65.25 272.824 65.186 C 272.888 65.124 273.058 65.009 272.979 64.968 C 271.95 64.423 270.829 64.071 269.776 63.573 C 269.744 63.558 269.8 63.503 269.826 63.478 C 269.849 63.454 269.883 63.438 269.916 63.432 C 270.003 63.416 270.093 63.409 270.181 63.412 C 270.613 63.43 271.056 63.608 271.473 63.706 C 271.622 63.741 271.771 63.779 271.922 63.802 C 272.073 63.825 272.226 63.839 272.378 63.841 C 272.42 63.842 272.463 63.831 272.5 63.81 C 272.538 63.789 272.565 63.751 272.595 63.718 C 272.621 63.688 272.651 63.658 272.667 63.621 C 272.684 63.585 272.688 63.543 272.692 63.503 C 272.7 63.433 272.713 63.361 272.704 63.29 C 272.695 63.222 272.67 63.155 272.64 63.093 C 272.585 62.982 272.528 62.869 272.448 62.774 C 272.369 62.681 272.272 62.602 272.169 62.535 C 271.922 62.372 271.666 62.221 271.403 62.086 C 271.138 61.95 270.862 61.839 270.588 61.724 C 270.51 61.691 270.431 61.66 270.348 61.64 C 270.266 61.619 270.181 61.601 270.095 61.603 C 268.964 61.642 266.358 64.638 267.611 61.778 C 267.643 61.706 267.68 61.634 267.734 61.577 C 267.789 61.52 267.861 61.481 267.931 61.444 C 268.028 61.393 268.129 61.345 268.234 61.315 C 269.354 60.995 269.985 61.283 271.276 60.916 C 271.475 60.859 271.681 60.831 271.88 60.777 C 272.077 60.723 272.276 60.67 272.465 60.591 C 272.581 60.543 272.692 60.481 272.787 60.4 C 272.882 60.318 272.958 60.215 273.027 60.11 C 273.079 60.033 273.12 59.947 273.146 59.858 C 273.173 59.766 273.175 59.668 273.186 59.573 C 273.193 59.511 273.202 59.449 273.2 59.386 C 273.197 59.324 273.182 59.262 273.171 59.2 C 273.166 59.173 273.168 59.143 273.152 59.12 C 273.141 59.103 273.119 59.088 273.099 59.092 C 271.994 59.348 272.821 58.997 272.294 58.828 C 270.665 58.306 268.647 59.254 269.455 57.672 C 271.319 54.027 274.88 63.034 275.782 61.573 C 277.758 58.372 270.998 54.898 276.124 54.145 C 276.243 54.128 276.362 54.11 276.482 54.097 C 276.635 54.081 276.788 54.062 276.942 54.058 C 277.095 54.055 277.248 54.063 277.4 54.077 C 277.482 54.084 277.565 54.09 277.642 54.119 C 277.717 54.148 277.785 54.195 277.846 54.248 C 277.913 54.306 277.989 54.365 278.019 54.448 C 278.279 55.176 277.93 55.987 278.595 56.557 C 278.658 56.611 278.732 56.653 278.805 56.693 C 278.878 56.734 278.958 56.763 279.035 56.797 C 279.106 56.829 279.171 56.885 279.248 56.89 C 279.305 56.894 279.407 56.88 279.404 56.824 C 279.075 50.705 277.944 56.924 281.062 54.112 C 281.101 54.076 281.208 53.99 281.155 53.983 C 281.155 53.983 271.573 52.754 271.573 52.754 C 268.227 53.176 265.295 66.835 270.212 47.812 C 270.276 47.564 270.47 47.363 270.651 47.183 C 270.651 47.183 272.991 51.335 272.991 51.335 C 273.912 50.632 273.129 45.394 275.094 48.976 C 275.204 49.176 275.307 49.381 275.397 49.592 C 275.487 49.803 275.582 50.014 275.634 50.237 C 275.654 50.32 275.6 50.407 275.608 50.492 C 275.613 50.547 275.616 50.635 275.67 50.646 C 275.763 50.665 275.857 50.605 275.94 50.56 C 276.036 50.507 276.105 50.413 276.199 50.357 C 276.263 50.319 276.337 50.298 276.41 50.282 C 276.482 50.266 276.557 50.262 276.632 50.261 C 276.68 50.26 276.731 50.26 276.777 50.277 C 276.822 50.293 276.864 50.322 276.896 50.357 C 276.977 50.446 277.04 50.55 277.112 50.646 C 277.184 50.742 277.247 50.846 277.328 50.934 C 277.36 50.968 277.404 50.991 277.448 51.007 C 277.494 51.024 277.544 51.023 277.593 51.03 C 277.691 51.045 277.788 51.069 277.887 51.075 C 277.985 51.081 278.084 51.077 278.182 51.066 C 278.383 51.043 278.585 51.016 278.783 50.974 C 278.982 50.932 279.183 50.891 279.371 50.814 C 279.608 50.716 280.059 50.708 280.049 50.452 C 280.049 50.452 280.765 42.379 280.765 42.379 C 280.163 43.092 275.008 46.983 276.022 43.319 C 276.042 43.245 276.071 43.173 276.106 43.104 C 276.142 43.035 276.187 42.972 276.234 42.909 C 276.287 42.837 276.347 42.771 276.404 42.702 C 276.461 42.633 276.522 42.567 276.576 42.495 C 276.627 42.426 276.678 42.357 276.719 42.282 C 276.761 42.207 276.796 42.129 276.824 42.049 C 276.837 42.01 276.842 41.969 276.842 41.928 C 276.842 41.886 276.829 41.845 276.824 41.803 C 276.821 41.779 276.828 41.753 276.82 41.731 C 276.813 41.712 276.8 41.693 276.782 41.685 C 276.725 41.662 276.664 41.647 276.603 41.641 C 276.541 41.635 276.478 41.642 276.417 41.649 C 276.306 41.664 276.196 41.687 276.086 41.707 C 275.975 41.726 275.866 41.756 275.754 41.767 C 275.745 41.767 275.739 41.75 275.741 41.741 C 275.744 41.727 275.753 41.71 275.766 41.706 C 276.484 41.545 278.505 41.74 278.575 40.754 C 278.58 40.693 278.546 40.635 278.517 40.581 C 278.517 40.581 276.92 39.88 276.92 39.88 C 278.652 38.658 285.076 42.52 284.886 41.66 C 284.518 39.986 278.73 37.935 285.09 40.745 C 285.234 40.809 285.39 40.844 285.54 40.892 C 285.69 40.94 285.844 40.978 285.991 41.034 C 286.075 41.065 286.156 41.103 286.231 41.152 C 286.305 41.2 286.372 41.26 286.436 41.322 C 286.484 41.368 286.527 41.42 286.563 41.476 C 286.599 41.533 286.621 41.598 286.652 41.658 C 286.81 41.962 287.204 42.903 287.13 42.569 C 287.13 42.569 286.087 34.969 286.087 34.969 C 289.46 46.33 287.141 37.304 287.906 34.841 C 287.978 34.609 288.039 34.372 288.139 34.151 C 288.239 33.932 288.364 33.724 288.501 33.526 C 288.575 33.418 288.66 33.312 288.769 33.24 C 288.878 33.167 289.009 33.128 289.138 33.103 C 289.138 33.103 288.935 41.604 288.935 41.604 C 292.1 38.809 288.374 32.844 293.636 32.974 C 293.636 32.974 297.574 31.97 297.574 31.97 C 296.188 31.25 293.29 30.658 292.583 28.949 C 292.519 28.795 292.481 28.616 292.517 28.453 C 292.557 28.271 292.678 28.113 292.796 27.969 C 292.878 27.869 292.98 27.702 293.104 27.736 C 296.276 28.594 299.357 29.771 302.536 30.604 C 302.536 30.604 302.864 21.512 302.864 21.512 C 303.319 21.51 303.776 21.544 304.229 21.5 C 304.487 21.475 304.728 21.36 304.982 21.308 C 305.238 21.255 305.498 21.228 305.756 21.185 C 305.756 21.185 304.696 16.773 304.696 16.773 C 312.257 12.656 309.357 24.468 309.144 27.607 C 309.144 27.607 312.953 15.108 312.953 15.108 C 312.953 15.108 315.329 21.181 315.329 21.181 C 319.932 20.452 312.015 9.755 319.729 12.33 C 319.729 12.33 318.156 18.349 318.156 18.349 C 320.281 16.826 320.754 14.212 319.485 18.746 C 319.461 18.832 319.387 18.899 319.357 18.984 C 319.328 19.069 319.316 19.16 319.309 19.25 C 319.306 19.295 319.312 19.342 319.328 19.383 C 319.345 19.428 319.38 19.462 319.405 19.503 C 319.428 19.538 319.439 19.582 319.47 19.61 C 322.417 22.229 320.256 10.177 323.452 13.434 C 324.423 14.424 324.297 16.501 326.17 15.914 C 326.361 15.854 326.53 15.736 326.702 15.633 C 326.764 15.596 326.853 15.565 326.87 15.494 C 326.901 15.37 326.891 15.225 326.829 15.114 C 326.633 14.765 324.703 13.306 326.154 13.602 C 326.639 13.7 327.101 13.884 327.576 14.024 C 328.899 14.413 329.627 14.484 328.658 15.802 C 328.617 15.857 332.006 15.685 333.411 17.963 C 333.411 17.963 324.35 22.917 324.35 22.917 C 334.133 28.672 327.699 24.212 334.592 24.212 L 334.592 24.212 L 334.592 24.212 L 334.592 24.212 Z  M 310.851 14.6 C 311.142 16.932 306.253 15.63 307.814 13.391 C 308.609 12.251 310.666 13.542 310.851 14.6 L 310.851 14.6 L 310.851 14.6 L 310.851 14.6 Z  M 296.24 22.098 L 296.24 22.098 L 296.24 22.098 L 296.24 22.098 Z  M 295.567 22.482 C 295.567 22.482 295.567 22.482 295.567 22.482 L 295.567 22.482 L 295.567 22.482 Z  M 289.8 29.307 C 291.637 25.633 288.454 32.673 289.8 29.307 L 289.8 29.307 L 289.8 29.307 Z  M 287.974 31.71 L 287.974 31.71 L 287.974 31.71 Z  M 282.879 33.536 C 283.251 32.513 287.239 31.163 287.406 32.845 C 287.671 35.521 282.465 34.988 282.879 33.536 L 282.879 33.536 L 282.879 33.536 L 282.879 33.536 Z  M 269.519 49.204 L 269.519 49.204 L 269.519 49.204 L 269.519 49.204 Z  M 261.829 57.951 C 263.755 52.174 260.89 61.706 261.829 57.951 L 261.829 57.951 L 261.829 57.951 L 261.829 57.951 Z  M 238.087 112.836 C 239.475 113.113 236.236 114.785 235.333 114.532 C 235.333 114.532 238.087 112.836 238.087 112.836 L 238.087 112.836 L 238.087 112.836 L 238.087 112.836 Z  M 220.209 130.81 C 223.841 128.994 218.653 132.366 220.209 130.81 L 220.209 130.81 L 220.209 130.81 L 220.209 130.81 Z  M 213.961 167.721 C 214.707 166.974 212.607 175.844 213.961 167.721 L 213.961 167.721 Z  M 215.499 160.608 L 215.499 160.608 Z  M 252.409 99.667 C 251.586 99.873 250.934 99.852 252.409 99.667 L 252.409 99.667 L 252.409 99.667 Z  M 308.832 22.194 C 308.832 22.194 308.832 22.194 308.832 22.194 L 308.832 22.194 Z " fill-rule="evenodd" fill="rgb(251,217,46)" vector-effect="non-scaling-stroke" stroke-width="0.881" stroke="rgb(255,255,255)" stroke-linejoin="round" stroke-linecap="butt" stroke-miterlimit="4"/></a>
<a target="_blank" xlink:href="http://www.abortioninireland.org/" class="country_link" alt="News on abortion in Ireland">
<path id="irl" class="legal" d=" M 125.145 222.317 C 125.145 222.317 123.343 231.886 123.343 231.886 C 125.37 234.981 119.224 245.675 118.705 245.675 C 114.225 245.675 112.341 244.206 109.056 245.586 C 107.564 246.213 104.503 247.563 103.852 246.113 C 103.852 246.113 94.053 247.45 94.053 247.45 C 91.658 245.664 88.309 249.676 93.948 245.62 C 95.083 244.804 89.212 245.052 88.619 245.002 C 88.619 245.002 93.795 243.344 93.795 243.344 C 93.795 243.344 88.232 243.043 88.232 243.043 C 86.639 240.98 89.337 240.164 91.215 240.003 C 91.391 239.988 91.568 239.976 91.743 239.955 C 92.104 239.912 92.476 239.913 92.825 239.811 C 92.985 239.765 93.104 239.628 93.233 239.523 C 93.272 239.491 93.34 239.45 93.323 239.403 C 93.281 239.283 93.188 239.18 93.085 239.105 C 91.638 238.061 91.044 240.314 88.235 237.408 C 88.22 237.393 88.239 237.341 88.259 237.348 C 94.974 239.634 91.739 233.971 96.561 234.657 C 96.561 234.657 102.764 235.101 102.764 235.101 C 101.598 233.766 96.673 233.756 93.522 233.852 C 93.522 233.852 103.326 228.084 103.326 228.084 C 103.415 228.031 94.446 224.626 94.043 221.985 C 93.891 220.992 101.218 220.289 100.897 218.428 C 100.529 216.292 97.426 219.972 98.916 215.733 C 99.018 215.443 99.201 215.184 99.29 214.89 C 99.341 214.725 99.353 214.544 99.331 214.372 C 99.319 214.285 99.253 214.211 99.193 214.147 C 98.059 212.944 97.387 216.86 98.424 213.474 C 98.447 213.399 98.423 213.298 98.364 213.246 C 98.267 213.16 97.973 213.228 98.003 213.102 C 98.459 211.186 108.542 216.965 109.285 216.838 C 109.285 216.838 113.656 212.393 113.656 212.393 C 112.955 211.991 108.392 212.651 108.901 210.302 C 108.926 210.188 108.958 210.072 109.02 209.973 C 109.108 209.832 109.198 209.67 109.346 209.594 C 109.534 209.497 109.767 209.426 109.97 209.482 C 110.686 209.681 112.952 211.047 111.354 209.632 C 111.243 209.534 111.127 209.431 111.061 209.299 C 111.037 209.252 111.079 209.19 111.112 209.149 C 111.151 209.099 111.205 209.047 111.268 209.041 C 111.402 209.026 111.541 209.048 111.669 209.09 C 112.328 209.31 112.176 209.456 112.746 209.437 C 112.795 209.435 112.87 209.431 112.884 209.383 C 112.907 209.303 112.878 209.208 112.83 209.14 C 112.699 208.954 112.522 208.805 112.361 208.644 C 112.269 208.552 112.153 208.482 112.073 208.38 C 112.048 208.348 112.025 208.278 112.061 208.26 C 112.251 208.164 112.48 208.169 112.674 208.079 C 112.748 208.045 112.809 207.974 112.842 207.899 C 112.88 207.813 112.902 207.71 112.879 207.618 C 112.879 207.618 120.916 208.668 120.916 208.668 L 120.916 208.668 L 120.916 208.668 C 120.916 208.668 112.539 214.757 112.539 214.757 C 116.897 223.64 120.792 214.853 121.445 219.121 C 121.981 222.632 123.42 221.147 125.049 222.125 L 125.049 222.125 L 125.434 222.606 C 125.338 222.509 125.241 222.413 125.145 222.317 L 125.145 222.317 L 125.145 222.317 Z " fill="rgb(10,170,39)" vector-effect="non-scaling-stroke" stroke-width="0.881" stroke="rgb(255,255,255)" stroke-linejoin="round" stroke-linecap="butt" stroke-miterlimit="4"/></a>
<a target="_top" xlink:href="/?page_id=103/#search-by-country&amp;country=9" class="country_link" alt="browse clinics by country">
<path id="gbr" class="legal" d=" M 137.216 232.835 C 138.151 233.562 140.581 234.858 138.561 235.815 L 138.561 235.815 M 137.504 236.295 C 136.273 237.116 135.096 233.513 137.216 232.835 L 137.216 232.835 M 147.116 167.569 C 151.951 169.987 146.736 168.708 155.887 169.912 C 156.185 169.951 159.962 169.868 159.93 170.345 C 159.9 170.802 158.073 173.922 157.677 174.189 C 147.474 181.081 155.42 178.115 150 180.449 C 149.401 180.707 147.847 180.426 148.947 182.119 C 149.937 183.644 165.792 178.283 165.583 185.784 C 165.536 187.489 158.089 196.431 157.582 196.9 C 156.919 197.515 152.107 197.401 152.331 198.012 C 152.331 198.012 156.878 199.547 156.878 199.547 C 159.145 201.313 153.572 200.566 153.381 200.872 C 153.31 200.987 153.383 201.149 153.433 201.274 C 153.488 201.412 153.653 201.493 153.688 201.637 C 153.704 201.707 153.631 201.796 153.561 201.812 C 153.202 201.893 152.829 201.917 152.46 201.914 C 151.799 201.909 151.129 201.662 150.48 201.788 C 150.304 201.822 150.384 202.138 150.384 202.317 C 150.384 203.393 158.187 202.913 159.66 205.585 C 162.82 211.316 160.881 216.144 163.457 222.646 C 163.824 223.574 169.675 226.97 170.527 229.321 C 171.169 231.088 169.909 237.055 170.521 238.11 C 174.363 244.723 170.383 241.306 168.935 245.523 C 168.921 245.566 168.926 245.653 168.971 245.655 C 171.274 245.74 180.176 244.186 181.674 249.696 C 182.416 252.426 180.38 257.915 177.586 258.788 C 174.519 259.746 174.251 260.21 169.449 263.64 C 169.395 263.679 169.35 263.741 169.341 263.807 C 169.341 263.807 175.002 265.744 175.002 265.744 C 175.358 265.67 175.704 265.542 176.065 265.492 C 176.421 265.443 176.783 265.42 177.142 265.447 C 177.33 265.461 177.504 265.553 177.682 265.612 C 177.718 265.624 177.786 265.623 177.785 265.66 C 177.446 273.434 163.729 272.138 158.548 271.289 C 156.062 270.882 156.548 268.275 148.942 270.13 C 148.878 270.146 148.865 270.25 148.873 270.316 C 149.016 271.467 150.291 271.998 148.654 271.764 C 144.045 271.106 146.513 269.259 140.221 268.502 C 134.297 267.789 138.238 277.544 131.989 271.872 C 130.615 270.625 131.37 271.338 131.496 271.734 C 131.496 271.734 122.885 273.97 122.885 273.97 C 122.74 274.216 122.575 274.452 122.389 274.669 C 122.349 274.715 122.282 274.743 122.221 274.744 C 122.153 274.744 122.072 274.725 122.032 274.672 C 117.942 269.285 122.796 270.756 127.7 266.67 C 130.266 264.531 131.553 260.784 135.596 261.044 C 137.801 261.186 149.176 264.192 148.637 256.664 C 148.637 256.664 139.727 259.959 139.727 259.959 C 136.911 259.032 138.63 255.294 135.17 256.632 C 134.902 256.736 132.14 251.065 130.8 253.861 C 130.523 254.438 130.873 254.556 130.127 254.703 C 129.793 254.768 129.457 254.836 129.117 254.847 C 128.962 254.852 128.811 254.79 128.661 254.751 C 128.522 254.714 128.376 254.69 128.252 254.618 C 128.036 254.494 127.83 254.347 127.653 254.172 C 127.564 254.084 127.505 253.964 127.468 253.843 C 127.453 253.794 127.484 253.74 127.507 253.693 C 127.99 252.727 131.965 254.037 127.159 253.08 C 126.971 253.043 126.78 252.961 126.642 252.828 C 126.521 252.711 126.45 252.538 126.426 252.372 C 125.766 247.785 136.876 249.993 138.465 244.562 C 140.243 238.487 133.144 239.878 133.56 239.425 C 136.487 236.239 139.928 235.353 142.791 235.911 C 150.988 237.508 147.033 235.638 147.788 229.167 C 147.801 229.049 147.884 228.934 147.984 228.869 C 148.096 228.797 148.242 228.787 148.375 228.786 C 148.629 228.783 148.88 228.843 149.133 228.858 C 149.358 228.872 149.587 228.911 149.809 228.874 C 152.135 228.482 148.31 224.676 148.173 224.28 C 148.16 224.241 148.133 224.176 148.092 224.184 C 147.647 224.271 147.343 225.446 146.75 224.788 C 146.63 224.656 146.526 224.479 146.529 224.301 C 146.608 218.286 150.314 218.474 151.153 215.629 C 151.17 215.571 151.223 215.489 151.177 215.449 C 147.276 211.997 144.503 219.585 141.989 215.101 C 141.875 214.899 141.705 214.726 141.52 214.587 C 139.806 213.3 141.642 217.669 140.529 217.51 C 139.783 217.403 138.851 214.726 138.092 214.256 C 138.054 214.232 138.013 214.308 137.993 214.348 C 137.954 214.423 137.962 214.517 137.921 214.591 C 137.873 214.677 137.822 214.78 137.732 214.818 C 137.592 214.877 137.429 214.891 137.281 214.861 C 136.984 214.8 136.702 214.676 136.425 214.552 C 136.198 214.45 135.987 214.316 135.774 214.188 C 135.683 214.133 135.522 214.11 135.515 214.004 C 135.424 212.528 141.966 207.818 140.876 205.86 C 137.259 199.364 144.196 204.403 140.868 200.538 C 140.764 200.418 140.724 200.242 140.724 200.082 C 140.724 199.718 140.816 199.36 140.868 199.001 C 140.896 198.808 140.935 198.617 140.964 198.424 C 140.983 198.3 140.988 198.174 141.012 198.051 C 141.064 197.797 141.181 197.554 141.193 197.294 C 141.198 197.181 141.169 196.949 141.06 196.982 C 137.664 198.007 135.113 208.595 132.217 207.555 C 132.217 207.555 136.282 198.969 136.282 198.969 C 136.047 198.793 132.704 200.935 135.966 198.796 C 136.153 198.674 136.333 198.521 136.447 198.328 C 139.388 193.323 139.37 193.378 141.253 189.869 C 141.272 189.833 141.315 189.734 141.277 189.749 C 137.053 191.473 137.058 194.44 133.105 194.869 C 131.144 195.081 131.07 193.376 132.222 193.787 C 133.819 194.357 132.833 190.829 137.372 190.962 C 137.55 190.968 137.719 190.885 137.888 190.83 C 137.929 190.817 138.022 190.796 137.997 190.762 C 137.227 189.755 133.898 191.138 133.376 189.595 C 132.999 188.481 136.857 189.861 136.782 189.111 C 136.77 188.982 136.74 188.851 136.68 188.736 C 136.572 188.531 136.415 188.356 136.284 188.164 C 136.157 187.979 136.006 187.808 135.906 187.607 C 135.852 187.5 135.811 187.373 135.831 187.255 C 135.85 187.131 135.92 187.009 136.015 186.928 C 136.173 186.795 136.371 186.715 136.562 186.635 C 136.709 186.573 136.868 186.542 137.023 186.505 C 137.106 186.485 137.192 186.453 137.276 186.466 C 137.451 186.492 137.62 186.554 137.785 186.619 C 137.965 186.69 138.127 186.803 138.307 186.871 C 138.484 186.938 138.666 186.999 138.853 187.025 C 138.948 187.038 139.044 187.006 139.138 186.985 C 139.287 186.953 139.441 186.932 139.579 186.868 C 141.423 186.015 139.265 176.881 141.093 175.529 C 144.833 172.761 143.946 172.324 147.116 167.569 L 147.116 167.569 L 147.116 167.569 Z  M 175.568 149.402 C 175.568 149.606 176.88 152.97 173.165 156.515 C 173.165 156.515 174.366 152.199 174.366 152.199 C 173.138 152.6 173.297 154.039 172.264 151.757 C 172.188 151.59 172.124 151.412 172.107 151.229 C 172.102 151.171 172.15 151.106 172.204 151.084 C 172.77 150.858 173.742 151.052 174.282 151 C 174.461 150.983 174.639 150.926 174.799 150.844 C 174.917 150.783 175.034 150.696 175.099 150.58 C 175.236 150.334 175.284 150.048 175.388 149.787 C 175.44 149.655 175.495 149.524 175.568 149.402 L 175.568 149.402 L 175.568 149.402 Z  M 162.784 166.704 C 161.777 168.717 157.581 165.724 158.445 164.136 C 159.165 162.811 161.323 165.974 162.784 166.704 L 162.784 166.704 L 162.784 166.704 Z  M 121.452 208.132 C 121.74 208.517 122.125 208.805 122.509 208.613 C 123.086 208.324 123.278 207.363 123.855 207.075 C 124.432 206.69 125.104 207.555 125.681 207.459 C 126.354 207.459 126.835 206.979 127.411 207.075 C 128.084 207.171 128.469 207.844 129.045 208.036 C 129.334 208.228 129.91 207.844 130.007 208.132 C 130.391 208.805 130.583 209.766 130.391 210.535 C 130.391 210.823 130.007 210.92 130.007 211.112 C 131.064 215.245 130.583 209.862 131.737 213.515 C 132.121 214.572 129.622 216.014 129.622 216.014 C 131.256 215.629 132.986 214.38 132.698 218.225 C 132.313 221.973 129.622 219.955 128.853 220.82 C 128.18 221.493 128.661 223.031 126.931 222.742 C 126.546 222.742 126.258 222.358 125.969 222.07 L 125.585 221.589 C 125.411 221.484 119.939 216.658 119.683 216.843 C 118.444 217.733 121.052 219.093 117.895 219.282 C 117.799 219.288 117.696 219.296 117.607 219.26 C 117.355 219.158 117.105 219.039 116.888 218.875 C 115.298 217.673 113.952 216.009 113.074 214.221 C 113.074 214.221 121.452 208.132 121.452 208.132 L 121.452 208.132 L 121.452 208.132 L 121.452 208.132 Z  M 138.946 168.723 C 135.65 173.996 135.755 173.199 131.908 175.793 C 129.532 177.396 136.477 162.551 138.946 168.723 L 138.946 168.723 L 138.946 168.723 Z  M 140.195 220.724 C 133.104 222.142 140.515 228.229 140.195 220.724 L 140.195 220.724 Z " fill-rule="evenodd" fill="rgb(10,170,39)" vector-effect="non-scaling-stroke" stroke-width="0.881" stroke="rgb(255,255,255)" stroke-linejoin="round" stroke-linecap="butt" stroke-miterlimit="4"/></a>
<a target="_top" xlink:href="/?page_id=103/#search-by-country&amp;country=3" class="country_link" alt="browse clinics by country">
<path id="che" class="legal" d=" M 248.875 331.438 C 246.438 331.125 243.317 331.278 246.065 334.971 C 246.094 335.009 246.094 335.071 246.074 335.115 C 246.029 335.214 245.97 335.315 245.88 335.376 C 245.719 335.488 245.537 335.582 245.344 335.619 C 245.232 335.642 245.112 335.595 245.008 335.547 C 244.005 335.092 244.566 331.997 242.282 333.739 C 242.117 333.865 242.109 334.122 241.976 334.28 C 241.863 334.413 241.727 334.556 241.557 334.595 C 240.26 334.895 235.041 329.579 235.588 338.719 C 235.594 338.827 235.582 338.953 235.648 339.038 C 235.962 339.442 236.874 339.456 236.378 340.128 C 236.249 340.303 235.746 340.683 235.672 340.66 C 235.538 340.617 235.424 340.503 235.357 340.38 C 234.624 339.05 233.686 338.515 233.666 338.431 C 233.403 337.353 233.805 337.265 233.842 337.204 C 233.879 337.142 233.551 337.106 231.827 336.132 C 231.302 335.835 229.205 328.628 227.61 334.778 C 226.944 337.346 230.238 334.111 225.892 338.755 C 225.772 338.884 225.657 339.033 225.495 339.104 C 225.397 339.147 225.277 339.106 225.177 339.068 C 224.968 338.987 224.774 338.869 224.582 338.752 C 224.383 338.631 224.21 338.468 224.005 338.356 C 223.817 338.253 223.619 338.161 223.411 338.113 C 223.307 338.088 223.194 338.11 223.092 338.143 C 222.038 338.476 220.948 339.091 219.892 339.334 C 214.475 340.581 218.25 331.375 215.875 331.563 C 214.15 332.019 211.651 337.29 208.963 335.644 C 207.226 334.58 215.63 325.147 216.4 323.989 C 220.741 317.462 217.639 323.35 223.381 318.342 C 223.435 318.295 223.522 318.296 223.573 318.246 C 223.655 318.164 223.714 318.061 223.765 317.957 L 223.765 317.957 L 223.957 317.765 C 224.451 317.518 230.804 318.004 232.716 317.26 C 232.716 317.26 232.847 315.499 232.847 315.499 C 233.041 315.507 233.223 315.608 233.394 315.7 C 233.5 315.757 233.589 315.845 233.666 315.939 C 233.703 315.985 233.743 316.05 233.726 316.107 C 233.332 317.41 238.13 317.501 240.682 318.919 L 240.682 318.919 L 240.682 319.015 C 240.125 324.438 240.438 325.563 246.688 326.313 Q 247.464 325.555 249.5 327.313 Q 249.44 327.492 248.875 331.438 Z " fill="rgb(10,170,39)" vector-effect="non-scaling-stroke" stroke-width="0.881" stroke="rgb(255,255,255)" stroke-linejoin="round" stroke-linecap="butt" stroke-miterlimit="4"/></a>
<a target="_top" xlink:href="/?page_id=103/#search-by-country&amp;country=1" class="country_link" alt="browse clinics by country">
<path id="aut" class="legal" d=" M 240.682 319.015 C 240.682 321.381 241.273 320.03 240.298 322.956 L 240.298 322.956 L 240.779 324.013 L 240.779 325.166 C 244.949 325.583 247.631 326.536 250.198 327.377 C 254.687 328.848 253.807 326.065 259.522 325.743 C 266.633 325.343 260.374 327.569 267.993 329.804 C 278.312 332.831 281.023 331.86 287.067 328.863 C 287.067 328.863 296.925 327.557 296.925 327.557 C 296.544 326.74 295.843 325.582 297.298 325.166 L 297.298 325.166 L 297.298 325.166 C 299.045 323.225 301.811 317.839 301.719 316.323 C 301.387 310.815 297.454 318.288 304.568 313.906 C 304.631 313.867 304.697 313.802 304.699 313.728 C 304.705 313.517 304.632 313.311 304.591 313.103 C 304.459 312.438 304.252 311.786 304.181 311.112 C 304.15 310.82 304.204 310.52 304.287 310.239 C 304.335 310.078 304.45 309.942 304.564 309.819 C 304.624 309.754 304.839 309.767 304.795 309.691 C 304.586 309.327 304.217 309.081 303.954 308.754 C 303.443 308.119 302.949 307.471 302.476 306.807 C 300.952 304.667 303.051 304.119 302.511 301.902 C 302.114 300.268 288.725 299.971 287.109 298.925 C 286.67 298.642 283.253 306.909 279.075 304.518 C 278.176 304.004 277.303 303.058 276.343 302.578 L 276.343 302.578 L 276.247 302.578 C 277.331 305.828 269.424 307.649 267.741 310.945 C 266.747 312.892 272.387 317.334 270.24 319.267 C 270.24 319.267 262.057 317.837 262.057 317.837 C 261.398 317.855 260.739 317.757 260.079 317.752 C 256.746 317.723 255.25 322.564 251.832 319.399 C 251.832 319.399 251.045 318.594 251.045 318.594 C 244.525 318.97 248.489 323.745 242.893 318.15 C 242.851 318.107 242.784 318.043 242.731 318.071 C 242.617 318.134 242.561 318.269 242.483 318.373 C 242.364 318.532 242.298 318.74 242.141 318.86 C 241.956 319.001 241.727 319.095 241.496 319.126 C 241.059 319.184 241.015 318.919 240.682 318.919 L 240.682 318.919 L 240.682 319.015 L 240.682 319.015 Z " fill="rgb(10,170,39)" vector-effect="non-scaling-stroke" stroke-width="0.881" stroke="rgb(255,255,255)" stroke-linejoin="round" stroke-linecap="butt" stroke-miterlimit="4"/></a>
<a target="_top" xlink:href="/?page_id=103/#search-by-country&amp;country=4" class="country_link" alt="browse clinics by country">
<path id="non_indexed" class="seeker" d=" M 216.941 367.748 C 217.71 367.748 218.382 367.075 218.382 366.402 C 218.382 365.729 217.71 365.153 216.941 365.153 C 216.172 365.153 215.499 365.729 215.499 366.402 C 215.499 367.075 216.172 367.748 216.941 367.748 C 217.71 367.748 216.172 367.748 216.941 367.748 Z " fill-rule="evenodd" fill="rgb(0,204,255)" vector-effect="non-scaling-stroke" stroke-width="0.881" stroke="rgb(255,255,255)" stroke-linejoin="round" stroke-linecap="butt" stroke-miterlimit="4"/></a>
<path id="lux" class="legal non_indexed" d=" M 214.538 293.831 C 214.057 293.639 213.48 293.35 212.904 293.35 C 212.423 293.35 211.942 293.831 211.366 293.831 C 211.269 293.927 211.366 293.543 211.269 293.447 C 210.885 293.254 210.501 293.062 210.02 292.87 L 210.116 292.485 C 212.231 292.678 209.347 288.929 209.635 288.064 C 210.02 287.006 211.942 283.45 213 285.276 C 212.904 285.757 212.807 286.237 213 287.006 C 213.48 289.025 215.787 289.217 215.979 289.506 C 217.325 291.14 213.48 291.909 214.538 293.831 L 214.538 293.831 Z " fill-rule="evenodd" fill="rgb(10,170,39)" vector-effect="non-scaling-stroke" stroke-width="0.881" stroke="rgb(255,255,255)" stroke-linejoin="round" stroke-linecap="butt" stroke-miterlimit="4"/>
<a target="_top" xlink:href="/?page_id=103/#search-by-country&amp;country=5" class="country_link" alt="browse clinics by country">
<path id="fra" class="legal" d=" M 185.221 271.147 C 185.515 273.204 189.729 278.559 190.968 279.047 C 196.237 281.121 195.218 282.892 196.824 286.251 C 196.866 286.338 196.927 286.423 197.01 286.472 C 197.01 286.472 203.063 284.664 203.063 284.664 C 202.629 285.572 201.655 288.939 203.053 289.198 C 203.333 289.249 203.623 289.222 203.904 289.265 C 204.089 289.293 204.278 289.326 204.445 289.409 C 204.551 289.463 204.63 289.563 204.697 289.662 C 204.836 289.866 204.919 290.106 205.058 290.311 C 205.125 290.409 205.215 290.491 205.31 290.563 C 207.568 292.276 210.845 291.985 214.538 293.831 C 217.439 295.282 218.339 298.973 220.329 298.565 C 222.626 298.094 227.886 298.57 229.749 300.626 C 229.749 300.626 225.495 308.634 225.495 308.634 C 224.709 310.662 223.949 317.924 222.802 318.918 C 218.577 322.582 220.001 318.564 217.553 322.078 C 217.128 322.689 215.74 324.761 215.643 324.812 C 215.441 324.918 208.132 335.135 208.963 335.644 C 209.815 336.165 215.868 329.136 216.568 332.33 C 217.212 335.271 215.906 340.412 217.169 341.615 C 219.673 344 219.801 348.223 215.499 348.139 C 215.499 348.139 216.172 357.655 216.172 357.655 C 216.081 361.524 229.151 360.539 221.843 365.825 C 219.259 367.694 216.785 369.189 213.781 371.076 C 208.964 374.1 207.984 372.506 204.012 372.506 C 204.012 372.506 198.609 367.622 198.609 367.622 C 198.269 368.771 199.858 369.989 197.044 369.766 C 196.952 369.759 196.856 369.764 196.771 369.728 C 196.626 369.667 196.472 369.599 196.367 369.482 C 196.209 369.305 196.065 369.099 196.003 368.87 C 195.879 368.412 195.912 367.924 195.818 367.459 C 195.808 367.409 195.743 367.339 195.698 367.363 C 195.594 367.42 195.53 367.537 195.479 367.645 C 195.479 367.645 194.471 370.137 194.471 370.137 C 194.217 368.472 190.711 366.561 188.561 366.627 C 182.929 366.801 176.136 375.957 181.28 380.244 L 181.28 380.244 L 180.895 380.244 C 179.883 379.99 172.53 379.225 171.716 379.439 C 168.704 380.228 165.94 373.992 164.939 376.495 L 164.939 376.495 L 164.939 376.399 C 158.411 372.482 158.472 373.645 151.579 373.419 C 149.126 373.338 146.045 368.848 143.458 368.257 C 137.458 366.886 141.539 366.349 139.756 364.287 C 138.675 363.038 137.243 364.815 136.584 362.461 C 136.584 362.461 145.313 347.277 145.313 347.277 C 145.312 347.254 139.535 341.714 146.388 336.412 C 147.417 335.616 150.082 345.348 150.281 345.111 C 151.059 344.186 148.34 336.963 147.253 335.74 C 146.417 334.799 147.458 331.126 147.541 326.8 C 147.541 326.8 140.909 320.841 140.909 320.841 C 140.662 320.567 140.474 320.244 140.284 319.928 C 139.191 318.105 139.072 312.319 139.179 310.268 C 139.183 310.196 139.204 310.112 139.165 310.051 C 136.83 306.45 134.515 310.493 133.302 305.962 C 133.237 305.719 132.956 305.58 132.73 305.471 C 132.528 305.373 132.289 305.387 132.066 305.365 C 131.948 305.354 131.82 305.328 131.712 305.375 C 131.555 305.442 131.424 305.563 131.311 305.69 C 131.208 305.804 131.181 305.974 131.076 306.086 C 130.999 306.169 130.896 306.248 130.783 306.258 C 130.689 306.266 130.604 306.19 130.528 306.134 C 129.862 305.648 129.731 305.244 129.062 304.548 C 128.401 303.86 119.464 301.53 120.604 299.791 C 120.604 299.791 125.818 297.484 125.818 297.484 C 123.695 296.392 123.253 297.207 125.064 295.85 C 125.12 295.808 125.129 295.725 125.145 295.657 C 125.159 295.601 125.203 295.507 125.15 295.485 C 124.543 295.223 118.512 297.675 121.397 293.735 C 123.246 291.208 130.586 293.174 130.985 293.492 C 133.655 295.617 134.727 289.543 138.602 297.387 C 138.611 297.405 138.653 297.405 138.662 297.387 C 138.876 296.975 138.632 297.132 138.891 297.003 C 139.179 296.859 139.459 296.696 139.756 296.57 C 144.227 294.688 144.529 299.452 149.842 297.751 C 150.197 297.637 147.028 285.871 147.409 285.469 C 148.132 284.705 147.566 284.096 147.349 283.066 C 147.349 283.066 152.876 285.156 152.876 285.156 C 152.533 286.352 151.773 285.068 152.269 286.939 C 152.43 287.545 152.624 288.143 152.828 288.737 C 152.875 288.872 152.895 289.052 153.02 289.121 C 153.216 289.228 153.461 289.196 153.684 289.206 C 153.912 289.216 154.162 289.278 154.368 289.181 C 154.822 288.968 151.878 287.741 155.495 288.845 C 156.467 289.141 159.905 291.231 160.974 291.104 C 166.997 290.388 160.989 286.432 167 285.051 C 174.077 283.425 174.89 283.468 176.246 279.401 C 177.253 276.379 175.936 272.038 181.857 271.531 C 183.351 271.403 183.76 271.412 185.221 271.147 L 185.221 271.147 L 185.221 271.147 Z  M 239.145 376.014 C 239.939 376.582 240.547 384.806 240.28 385.843 C 239.91 387.279 237.619 397.083 236.338 396.961 C 231.04 396.456 232.71 388.744 232.608 387.933 C 231.598 379.896 235.412 383.479 239.145 376.014 L 239.145 376.014 L 239.145 376.014 Z  M 216.941 367.748 C 218.767 367.748 218.816 365.153 216.941 365.153 L 216.941 367.748 L 216.941 367.748 Z " fill-rule="evenodd" fill="rgb(10,170,39)" vector-effect="non-scaling-stroke" stroke-width="0.881" stroke="rgb(255,255,255)" stroke-linejoin="round" stroke-linecap="butt" stroke-miterlimit="4"/>
</a>
<path id="lie" class="legal non_indexed" d=" M 240.298 322.956 L 240.779 324.013 L 240.779 325.166 C 240.298 325.166 240.01 325.07 239.913 325.07 C 239.817 324.974 240.106 324.013 240.298 322.956 L 240.298 322.956 Z " fill-rule="evenodd" fill="rgb(255,206,206)" vector-effect="non-scaling-stroke" stroke-width="0.175" stroke="rgb(255,255,255)" stroke-linejoin="miter" stroke-linecap="butt" stroke-miterlimit="4"/>
<a target="_top" xlink:href="/?page_id=103/#search-by-country&amp;country=7" class="country_link" alt="browse clinics by country">
<path id="nld" class="legal" d=" M 199.639 268.936 C 202.672 269.947 202.82 265.345 206.506 270.45 C 206.559 270.524 206.662 270.552 206.752 270.57 C 207.152 270.649 207.564 270.663 207.965 270.738 C 215.325 272.122 206.232 277.098 212.519 277.491 L 212.519 277.491 L 212.615 277.491 C 209.793 273.258 215.187 273.356 214.748 268.669 C 213.849 259.059 212.853 267.671 219.548 262.754 C 219.633 262.692 219.686 262.592 219.728 262.496 C 219.759 262.423 219.806 262.326 219.761 262.261 C 219.656 262.111 219.485 262.018 219.329 261.923 C 219.239 261.87 218.526 261.669 218.536 261.351 C 218.539 261.249 218.681 261.205 218.767 261.15 C 219.156 260.901 219.578 260.705 219.956 260.441 C 224.657 257.163 217.09 254.766 219.392 253.845 C 219.911 253.637 221.559 254.526 221.894 254.085 C 221.993 253.955 222.038 253.78 222.043 253.617 C 222.053 253.243 221.94 252.873 221.939 252.499 C 221.938 252.273 221.973 252.044 222.035 251.826 C 222.114 251.548 222.252 251.29 222.359 251.021 C 222.534 250.587 224.253 247.27 223.669 246.444 C 220.88 242.492 215.815 243.31 211.114 245.382 C 211.114 245.382 203.931 249.471 203.931 249.471 C 202.596 252.897 203.212 255.268 200.925 258.399 C 196.006 265.129 195.998 264.105 199.446 266.991 C 199.498 267.034 199.513 267.114 199.513 267.182 C 199.514 267.227 199.475 267.265 199.447 267.302 C 199.362 267.412 199.29 267.538 199.177 267.619 C 199.018 267.734 198.845 267.873 198.649 267.879 C 197.487 267.914 194.703 263.033 192.769 265.812 C 192.769 265.812 196.803 267.416 196.803 267.416 C 196.803 267.416 199.158 268.167 199.158 268.167 C 199.413 268.391 199.532 268.616 199.639 268.936 L 199.639 268.936 L 199.639 268.936 Z  M 208.963 247.789 C 208.963 247.789 206.079 256.056 206.079 256.056 C 217.117 261.391 211.095 247.256 208.963 247.789 L 208.963 247.789 L 208.963 247.789 Z  M 192.141 268.167 C 191.608 275.099 203.018 264.093 191.949 267.782 L 191.949 267.782 L 192.141 268.167 L 192.141 268.167 Z " fill-rule="evenodd" fill="rgb(10,170,39)" vector-effect="non-scaling-stroke" stroke-width="0.881" stroke="rgb(255,255,255)" stroke-linejoin="round" stroke-linecap="butt" stroke-miterlimit="4"/>
</a>
<path id="dnk" class="legal non_indexed" d=" M 240.298 226.931 C 235.565 226.203 232.214 218.357 231.188 213.162 C 230.861 211.506 230.61 203.679 231.958 203.249 C 237.564 201.459 239.295 205.085 239.473 205.027 C 239.559 204.999 239.715 205.009 239.721 204.919 C 239.848 203.14 238.002 201.699 239.364 199.922 C 239.457 199.8 239.602 199.729 239.721 199.633 C 239.781 199.584 239.834 199.525 239.901 199.486 C 239.964 199.448 240.034 199.419 240.106 199.404 C 240.266 199.373 240.429 199.352 240.593 199.35 C 241.567 199.337 241.525 199.704 241.391 200.51 C 241.39 200.518 241.404 200.523 241.412 200.522 C 241.427 200.519 241.443 200.511 241.451 200.498 C 243.826 196.817 249.115 203.779 250.732 205.708 C 252.401 207.701 246.291 211.862 245.681 214.147 C 245.681 214.147 241.142 215.679 241.142 215.679 C 242.428 216.22 252.974 217.802 250.633 222.97 C 248.976 226.626 241.419 220.682 242.514 217.968 C 242.614 217.72 243.275 217.507 241.997 217.921 C 238.171 219.162 242.434 224.083 240.298 226.931 L 240.298 226.931 L 240.298 226.931 L 240.298 226.931 Z  M 258.465 210.975 L 258.465 211.071 C 264.669 206.559 260.696 218.569 261.733 219.145 L 261.733 219.145 L 261.733 219.145 L 262.31 220.587 C 260.104 222.517 254.007 224.523 252.698 219.722 C 252.379 218.555 250.62 215.235 250.982 214.964 C 251.483 214.59 257.49 208.86 259.44 212.916 C 259.484 213.006 259.521 213.102 259.531 213.201 C 259.603 213.971 259.542 217.144 259.692 215.74 C 259.728 215.401 259.765 215.06 259.762 214.718 C 259.76 214.374 259.715 214.032 259.678 213.69 C 259.655 213.475 259.625 213.261 259.583 213.049 C 259.541 212.836 259.482 212.627 259.426 212.417 C 259.125 211.288 257.311 212.706 258.465 210.975 L 258.465 210.975 L 258.465 210.975 L 258.465 210.975 Z  M 260.387 226.354 L 259.907 226.354 C 259.907 231.03 251.686 227.451 252.055 226.763 C 252.055 226.763 258.465 227.219 258.465 227.219 C 258.276 226.983 255.859 223.612 258.176 224.624 C 258.398 224.721 258.557 224.931 258.777 225.033 C 259.121 225.192 259.51 225.243 259.854 225.402 C 260.118 225.524 260.758 225.984 260.387 226.354 L 260.387 226.354 L 260.387 226.354 Z  M 231.359 212.321 C 231.359 215.497 231.243 211.858 231.359 212.321 L 231.359 212.321 L 231.359 212.321 Z  M 248.18 193.962 C 250.177 201.283 244.658 197.105 240.574 198.96 C 236.939 200.612 233.686 206.403 232.068 202.762 C 230.152 198.451 238.295 198.286 240.298 197.518 C 244.569 195.881 245.804 186.834 248.18 193.962 L 248.18 193.962 L 248.18 193.962 L 248.18 193.962 Z  M 257.023 226.643 L 256.158 226.739 C 257.233 227.046 258.506 228.621 257.023 226.643 L 257.023 226.643 L 257.023 226.643 Z " fill-rule="evenodd" fill="rgb(251,217,46)" vector-effect="non-scaling-stroke" stroke-width="0.881" stroke="rgb(255,255,255)" stroke-linejoin="round" stroke-linecap="butt" stroke-miterlimit="4"/>
<path id="fin" class="legal non_indexed" d=" M 353.72 140.326 C 356.79 128.559 365.955 118.619 366.637 105.663 C 366.841 101.776 357.069 100.267 354.97 98.225 C 352.053 95.389 358.659 93.408 352.726 90.268 C 352.608 90.206 352.539 90.074 352.471 89.959 C 350.891 87.271 349.643 86.735 348.031 83.789 C 348.031 83.789 347.914 74.273 347.914 74.273 C 346.4 69.31 337.191 64.189 337.783 59.532 C 338.138 56.748 340.591 53.415 339.691 50.608 C 338.115 45.695 327.765 47.657 329.722 40.424 C 330.38 37.99 328.551 35.352 329.352 30.798 C 329.975 27.259 323.452 26.663 321.712 24.789 L 321.712 24.789 L 321.616 24.309 C 321.461 24.309 321.232 24.501 321.232 24.212 L 321.232 24.212 L 321.232 24.405 C 318.919 24.867 314.3 28.648 314.23 31.379 C 314.11 36.024 313.71 40.373 313.557 42.837 C 313.301 46.972 309.841 43.871 306.512 46.095 C 306.283 46.247 306.032 46.409 305.758 46.431 C 304.902 46.502 302.428 46.738 301.527 46.512 L 301.527 46.512 L 301.142 46.224 C 300.377 44.694 293.468 35.393 294.318 42.187 L 294.318 42.187 L 293.741 44.206 L 293.837 44.206 L 293.741 44.302 L 294.126 44.782 C 293.712 45.609 307.195 53.284 309.204 54.791 C 309.911 55.321 310.513 63.76 310.851 64.487 C 313.181 69.51 312.26 68.088 313.254 73.907 C 314.228 79.616 319.368 78.515 320.132 81.44 C 320.359 82.31 326.888 86.013 326.918 88.537 C 326.918 88.537 319.952 100.869 319.952 100.869 C 319.952 100.869 314.344 108.642 314.344 108.642 C 314.138 109.53 314.328 116.233 312.581 116.008 C 311.561 115.877 312.042 113.127 309.859 115.191 C 309.789 115.257 309.747 115.348 309.697 115.431 C 309.609 115.579 309.511 115.723 309.446 115.883 C 309.368 116.078 309.282 116.278 309.272 116.487 C 309.266 116.605 309.319 116.731 309.402 116.814 C 309.814 117.223 311.482 116.699 311.235 117.738 C 311.018 118.651 309.893 119.378 309.311 120.025 C 305.88 123.847 310.983 125.103 310.903 128.374 C 310.903 128.374 313.284 137.829 313.284 137.829 C 313.436 138.021 314.415 138.722 314.215 139.197 C 313.843 140.08 313.811 139.765 314.527 140.242 C 314.527 140.242 314.599 147.728 314.599 147.728 C 314.599 147.728 323.971 151.044 323.971 151.044 C 325.71 149.864 328.369 153.46 325.941 156.234 C 325.903 156.278 325.789 156.389 325.845 156.378 C 330.782 155.482 326.679 152.338 328.921 153.879 C 328.999 153.933 329.086 153.982 329.18 153.996 C 329.364 154.025 329.556 154.044 329.738 154.005 C 330.038 153.943 330.323 153.821 330.603 153.699 C 330.789 153.618 330.959 153.504 331.132 153.399 C 331.243 153.331 331.374 153.283 331.456 153.182 C 333.664 150.473 337.358 149.845 338.425 149.229 C 342.093 147.115 344.336 143.686 344.781 143.883 C 344.781 143.883 352.279 141.96 352.279 141.96 C 352.443 141.909 352.618 141.868 352.759 141.768 C 353.037 141.571 353.276 141.324 353.516 141.083 C 353.629 140.97 353.707 140.827 353.816 140.711 C 353.841 140.685 353.897 140.695 353.913 140.663 C 353.934 140.62 353.913 140.567 353.913 140.519 L 353.913 140.519 L 353.72 140.326 L 353.72 140.326 Z  M 351.894 133.117 C 356.443 130.698 342.743 132.725 347.184 128.023 C 348 127.159 348.683 127.963 350.005 126.245 C 350.064 126.167 350.164 126.119 350.26 126.1 C 352.715 125.629 351.38 134.196 352.375 125.331 C 352.395 125.15 352.51 124.989 352.615 124.839 C 352.821 124.545 353.05 124.267 353.3 124.01 C 353.421 123.884 353.569 123.784 353.72 123.697 C 353.851 123.622 353.99 123.54 354.141 123.529 C 354.397 123.511 354.65 123.609 354.907 123.615 C 355.095 123.619 355.666 123.507 355.562 123.13 C 355.562 123.13 346.968 118.339 346.968 118.339 C 340.928 117.289 348.242 114.835 342.651 110.73 C 342.651 110.73 338.594 104.456 338.594 104.456 C 345.402 103.885 339.275 113.134 347.179 108.982 C 347.182 108.98 348.129 108.851 348.145 109.183 C 348.349 113.443 354.064 115.043 354.002 116.48 C 353.993 116.681 353.995 116.917 353.862 117.068 C 352.528 118.586 347.851 113.803 347.32 113.505 C 347.182 113.427 346.978 113.384 346.845 113.471 C 342.279 116.448 355.222 118.204 354.874 118.699 C 354.756 118.867 351.149 119.839 355.066 119.084 C 358.507 118.42 353.7 114.352 359.178 113.743 C 359.178 113.743 359.295 122.736 359.295 122.736 C 358.175 125.66 359.473 125.038 356.7 125.476 C 355.714 125.631 356.957 136.305 351.894 133.117 L 351.894 133.117 L 351.894 133.117 Z  M 334.785 111.971 C 339.565 119.939 334.227 111.465 336.321 118.828 C 336.437 119.235 336.626 119.62 336.827 119.993 C 336.921 120.166 337.056 120.316 337.197 120.453 C 337.245 120.498 337.36 120.588 337.38 120.525 C 337.38 120.525 338.332 112.944 338.332 112.944 C 339.794 113.647 339.745 115.334 340.36 112.788 C 340.473 112.319 340.566 111.842 340.744 111.394 C 340.765 111.341 340.864 111.363 340.915 111.388 C 343.069 112.436 341.799 117.639 340.36 119.949 C 339.973 120.568 338.97 117.632 338.437 118.315 C 337.627 119.352 339.189 121.394 338.293 122.82 C 337.921 123.412 337.443 123.932 337.063 124.519 C 336.838 124.866 336.638 125.231 336.482 125.614 C 336.42 125.765 336.423 125.937 336.419 126.1 C 336.413 126.322 336.416 126.546 336.452 126.764 C 336.531 127.245 336.633 127.723 336.763 128.193 C 336.98 128.978 337.55 135.846 340.218 134.328 C 340.311 134.275 341.51 133.028 341.609 133.406 C 342.32 136.102 342.134 139.698 340.982 135.9 C 339.79 131.973 338.091 136.589 337.764 137.731 C 337.764 137.731 334.81 128.244 334.81 128.244 C 338.853 123.488 332.518 113.104 334.785 111.971 L 334.785 111.971 L 334.785 111.971 Z " fill-rule="evenodd" fill="rgb(251,217,46)" vector-effect="non-scaling-stroke" stroke-width="0.881" stroke="rgb(255,255,255)" stroke-linejoin="round" stroke-linecap="butt" stroke-miterlimit="4"/>

</g></svg>